<?xml version="1.0" encoding="UTF-8"?>
<svg id="Layer_1" xmlns="http://www.w3.org/2000/svg" viewBox="0 0 3751.47 2500">
  <defs>
    <style>
      .cls-1 {
        fill: #d8d5de;
      }

      .cls-2 {
        fill: #0b929f;
      }

      .cls-3 {
        fill: #8a1922;
      }

      .cls-4 {
        fill: #1278c5;
      }

      .cls-5 {
        fill: #0fbcb8;
      }

      .cls-6 {
        fill: #ef7159;
      }

      .cls-7 {
        fill: #32c5d4;
      }

      .cls-8 {
        fill: #d9eaf8;
      }

      .cls-9 {
        fill: #00637f;
      }

      .cls-10 {
        fill: #051f59;
      }

      .cls-11 {
        fill: #036377;
      }

      .cls-12 {
        fill: #1a7b79;
      }

      .cls-13 {
        fill: #04124d;
      }

      .cls-14 {
        fill: #e87725;
      }

      .cls-15 {
        fill: #3e9ecb;
      }

      .cls-16 {
        fill: #a7d5f5;
      }

      .cls-17 {
        fill: #f39645;
      }

      .cls-18 {
        fill: #efcbb3;
      }

      .cls-19 {
        fill: #cd4f47;
      }

      .cls-20 {
        fill: #fabc6f;
      }

      .cls-21 {
        fill: #f0a57c;
      }

      .cls-22 {
        fill: #d26a6a;
      }

      .cls-23 {
        fill: #099;
      }

      .cls-24 {
        fill: #374775;
      }

      .cls-25 {
        fill: #fefefe;
      }

      .cls-26 {
        fill: #5eb3eb;
      }

      .cls-27 {
        fill: #af3232;
      }

      .cls-28 {
        fill: #e5552f;
      }

      .cls-29 {
        fill: #48a5a1;
      }
    </style>
  </defs>
  <path class="cls-25" d="M-.35,0h3748.26c1.49,2.21,2.91,4.64,3.2,7.33,2.32,20.59.07,44.45.1,65.34l.1,145.2.17,477.06-.05,1257.18-.15,377.08-.1,114.28c0,15.92,1.83,34.5-.07,50.12-.29,2.42-1.76,4.57-3.2,6.42H-.35V0Z"/>
  <path class="cls-16" d="M668.41,340.84c6.88-.37,13.81-.87,20.41,1.45,10.04,3.52,16.72,9.65,21.09,19.31,4.37,9.64,5.07,18.87,1.02,28.85-4.97,12.24-14.49,17.19-25.77,22.21-6.08.91-13.5.68-19.37-1.35-9.96-3.46-18.1-9.69-22.7-19.36-4.13-8.67-3.33-19.82.08-28.57,4.84-12.41,13.81-17.41,25.24-22.52Z"/>
  <path class="cls-17" d="M923.07,616.15c-10.21.77-20.94,2.4-30.89,4.87-11,2.74-25.8,8.69-36.99,4.86-6.66-2.28-12.03-10.61-14.54-16.79-2.4-5.92-3.06-11.91-.17-17.83,6.85-14.07,42.81-28.46,57.46-34.07-4.9-18.7-5.44-39.27-2.99-58.39l-36.42-15.47c-6.19-2.59-14.23-5.09-19.29-9.56-4.81-4.26-6.7-9.99-6.94-16.4-.26-6.88,2.17-13.35,7.23-18.11,7.34-6.89,17.33-5.91,26.56-5.44l-.44,1.05c-1.27,2.91-2.54,4.99-4.57,7.43-3.69,4.41-4.5,7-3.87,12.8.54,5,3.62,8.28,7.48,11.46,13.21,10.9,34,18.87,49.36,27.1-3.77,23.05-1.88,40.85,4.18,63.35-17.1,8.33-44.55,16.72-55.42,32.76-.77,5.68-1.01,10.79,2.37,15.77,3.07,4.51,6.42,7.33,11.91,7.99,15.9,1.92,34.31-1.82,50.1-3.96l7.61-1.32c6.38,4.98,10.2,15.22,15.27,21.79,8.11,10.51,18.44,19.75,28.79,28-9.81,14.02-34.53,39.83-31.88,57.2,7.41,8.46,12.87,11.51,23.65,14.42-6.55,5.07-11.65,9.42-20.4,9.47-12.23.07-19.32-3.82-27.94-12.18-1.84-4.25-4.38-9.24-4.84-13.86-1.27-12.97,26.64-46.88,35.15-57.83-10.53-10.48-24.05-23.8-29.16-38l-.35-1.06Z"/>
  <path class="cls-16" d="M491.48,452.73c9.72-.37,21.17-1.72,30.6.78,15.33,4.06,30.07,15,37.54,29.14,3.19,6.04,5.89,11.71,7.69,18.35,5.04,18.58,1.61,36.58-8.33,52.8-9.97,16.29-25.11,25.76-43.13,30.39-15.61.72-27.66.7-42.17-6.31-15.17-7.33-27.68-24.72-33.07-40.43-5.77-16.85-3.42-33.85,4.48-49.56,9.7-19.29,26.75-28.64,46.38-35.16Z"/>
  <path class="cls-6" d="M2046.87,240.07c31.24-24.63,77.8-33.93,116.45-29.29,41.82,5.02,80.27,27.13,106.09,60.24,27.56,35.35,38.08,78.61,32.17,122.69-5.24,39.04-26.96,69.55-54.16,96.6-13.88,11.77-33.73,25.91-50.95,32.12l-11.37,4.84c-40.75,14.79-84.91,14.7-124.4-4.21-36.85-17.65-66.41-50.3-80-88.84-16.48-46.74-8.87-91.57,11.75-135.28,14.19-23.96,31.19-43.53,54.43-58.87Z"/>
  <path class="cls-27" d="M2046.87,240.07l-.53,2.15c-2.38,8.23-18.49,21.84-24.15,30.36-31.33,47.13-34.38,111.88-9.55,162.67,18.55,37.95,52.31,68.64,92.47,82.11,20.75,6.96,44.63,10.18,66.51,7.8,8.26-.9,16.49-3.89,24.85-2.73l-11.37,4.84c-40.75,14.79-84.91,14.7-124.4-4.21-36.85-17.65-66.41-50.3-80-88.84-16.48-46.74-8.87-91.57,11.75-135.28,14.19-23.96,31.19-43.53,54.43-58.87Z"/>
  <path class="cls-25" d="M2229.6,295.32l31.5,30.49-136.57,138.56-45.75-47.7-32.95-34.09c4.77-10.09,21.55-23.69,29.63-32.16l47.78,49.07,106.37-104.18Z"/>
  <path class="cls-20" d="M1079.4,257.07c10.81.25,20.71-1.46,28.64,7.05,9.87,10.58,7.5,42.98,8.67,58.02.05.63.31,7.02.52,7.27.05.06,13.83,1.51,15.28,1.7,9.22,1.2,17.67,3.77,26.33,7.1,4.78,1.85,11.31,5.44,16.33,6.07,1.24.15,1.56,0,2.64-.22,10.06-12.26,22.15-28.8,35.44-37.45,6.06-3.94,9.79-2.27,16.13-.76,7.5,4.69,21.55,11.59,23.29,21.08,1.47,8.02-9.64,20.7-14.2,27.27-1.46,2.1-16.03,22.9-15.84,23.39.89,2.29,7.72,7.92,9.68,9.98,14.16,14.79,24.47,29.88,32.87,48.65l24.19-5.94c10.14-2.99,35.17-13.69,45.01-8.72,9.16,4.63,15.53,13.73,18.15,23.47,1.42,5.28,1.2,11.32-1.36,16.23-7.15,13.7-62.75,31.51-64.41,35.77-1.82,4.68.59,19.97.34,25.86-.43,10.01-1.97,20.61-4.13,30.38l1.91.73c13.27,5.15,49.76,19.99,55.1,33.2,2.44,6.04.99,15.52-1.85,21.24-1.84,3.7-3.92,6.46-6.97,9.22l-16.43,12.53c-18.05-3.09-35.98-10.17-53.38-15.83-10.34,14.82-20.62,28.65-33.98,40.97l21.68,37.96c4.42,7.27,10.15,14.35,12.96,22.4,1.08,3.09,1.16,5.12.27,8.35-2.15,7.81-12.52,15.16-19.52,18.44l-1,.41c-4.32,1.34-9.77,3-14.34,2.91-13.15-.25-21.92-12.27-30.62-20.98-21.44,13.23-53.73,23.07-77.94,29.07-1.53,11.97-.99,23.83-11.15,32.21-2.55,2.1-5.6,3.76-8.61,5.08l-7.34.73c-10.98.97-19.64,1.18-28.39-6.76-10.52-9.54-10.39-29.47-11.47-42.86-.76-11.83.62-27.65-3.86-38.51-12.28-1.36-24.12-6.76-34.91-12.47-9.88,3.73-23.72,21.05-31.43,28.79l-11.07,9.53c-10.79-2.91-16.24-5.96-23.65-14.42-2.65-17.37,22.06-43.18,31.88-57.2-10.35-8.25-20.68-17.5-28.79-28-5.07-6.56-8.89-16.8-15.27-21.79l-7.61,1.32c-15.79,2.14-34.2,5.88-50.1,3.96-5.49-.66-8.84-3.48-11.91-7.99-3.39-4.97-3.14-10.08-2.37-15.77,10.87-16.04,38.32-24.43,55.42-32.76-6.06-22.49-7.95-40.3-4.18-63.35-15.37-8.22-36.16-16.2-49.36-27.1-3.85-3.18-6.93-6.45-7.48-11.46-.63-5.8.18-8.38,3.87-12.8,2.03-2.44,3.3-4.52,4.57-7.43l.44-1.05,51.14,5.2c5.02-19.11,17.29-37.1,30.14-51.71l-24.79-37.86c-3.82-6.45-6.64-12.67-4.3-20.22,2.75-8.87,9.33-12.91,16.92-17.1,8.81-2.4,13.28-4.24,21.61.7,15.61,9.26,29.55,26.82,41.98,39.89,17.62-9.94,34.3-17.14,54.26-21.04-.08-18.03-4.41-53.02,6.69-67.74,3.93-5.21,13.7-6.01,19.69-6.86Z"/>
  <path class="cls-17" d="M1177.81,344.06c10.06-12.26,22.15-28.8,35.44-37.45,6.06-3.94,9.79-2.27,16.13-.76-5,8.35-12.96,13.81-19.84,20.51-7.09,6.9-13.59,14.61-20.14,22.03l-11.58-4.33Z"/>
  <path class="cls-17" d="M1261.35,614.35c1.45-4.57,4.16-14.66,8.03-17.41,19.76,9.21,39.64,19.62,61.78,20.71l-16.43,12.53c-18.05-3.09-35.98-10.17-53.38-15.83Z"/>
  <path class="cls-17" d="M1053.03,331.67c-.08-18.03-4.41-53.02,6.69-67.74,3.93-5.21,13.7-6.01,19.69-6.86-7.23,16.05-7.13,30.9-5.32,48.13.78,7.41,2.74,15.76,2.09,23.14-7.42,1.25-15.66,3.34-23.14,3.33Z"/>
  <path class="cls-17" d="M1169.07,690.39c5.54-4.81,12.21-8.06,18.6-11.61,17.03,21.76,33.95,45.08,54.07,64.09-4.32,1.34-9.77,3-14.34,2.91-13.15-.25-21.92-12.27-30.62-20.98l-27.72-34.41Z"/>
  <path class="cls-17" d="M935.19,312.12l8.43,5.65c-.91,4.61-3.23,8.37-4.45,12.82-2.41,8.77,2.87,18.9,7.68,26l21.68,28.24c-15.3,18.41-26.92,35.11-37.41,56.66-5.2.34-8.97-.87-13.89-2.49,5.02-19.11,17.29-37.1,30.14-51.71l-24.79-37.86c-3.82-6.45-6.64-12.67-4.3-20.22,2.75-8.87,9.33-12.91,16.92-17.1Z"/>
  <path class="cls-17" d="M1013.11,691.31l5.93-4.5c10.3,2.11,19.68,7.46,30.07,9.8,8.65,2.18,16.94,3.69,25.8,4.62,1.33,16.9,1.95,73.05,15.55,83.9l5.56,3.73,3.07,2.32-7.34.73c-10.98.97-19.64,1.18-28.39-6.76-10.52-9.54-10.39-29.47-11.47-42.86-.76-11.83.62-27.65-3.86-38.51-12.28-1.36-24.12-6.76-34.91-12.47Z"/>
  <path class="cls-25" d="M1118.85,753.88l2.23-48.1c15.61-4.23,32.06-6.37,46.3-14.42l1.68-.96,27.72,34.41c-21.44,13.23-53.73,23.07-77.94,29.07Z"/>
  <path class="cls-25" d="M1074.9,376.03c34.55-3.47,67.69,2.95,96.88,22.41,33.58,22.39,54.61,55.73,62.21,95.07,6.78,35.08-2.63,74.63-22.99,103.77-23.93,34.25-56.83,52.71-97.23,59.97-36.16,2.75-70.08-4.72-100.7-24.94-28.87-19.06-52.85-54.66-59.11-88.57-7-37.93.43-76.63,22.93-108.22,23.28-32.68,58.72-52.96,97.99-59.49Z"/>
  <path class="cls-17" d="M1078.8,417.99c24.89-2.57,47.54,1.06,69.17,14.18,22.19,13.47,37.9,37.29,43.53,62.51,5.82,26.05.39,54.61-14.37,76.94-16.59,25.11-39.96,38.13-68.81,43.63-25.15,2.17-47.59-1.75-69.26-15.27-23.12-14.42-38.35-36.85-44.38-63.22-5.67-24.78-.11-51.4,13.44-72.7,16.68-26.22,41.14-39.37,70.68-46.08Z"/>
  <path class="cls-26" d="M2441.09,455.04c4.78-74.82,38.1-144.55,94.81-194.13,58.69-51.31,135.97-78.27,213.83-72.81,79.6,5.58,148.03,42.11,200.2,102.23,47.89,55.2,69.61,130.14,64.67,202.52-.63,9.37-1.22,22.97-6.2,30.95.61,1.68,1.05,2.77.95,4.59-.49,8.01-5.03,18.5-7.67,26.12-15.48,45.02-38.86,79.16-72.29,112.55-53.81,53.76-128.37,80.51-203.79,80.16-80.11-.37-151.38-33.87-207.11-90.55-54.17-55.1-77.84-125.66-77.4-201.63Z"/>
  <path class="cls-8" d="M2454.1,469.99c14.58-2.35,30.16-5.93,43.82-11.72,1.15,63.43,22.62,123.31,68.83,167.96,44.21,42.7,101.6,66.52,163.17,65.02,47.16-1.15,99.72-15.84,136.7-46.46l.88-2.04c16.9-4.01,39.05-33.19,49.02-47.19,14.48-20.29,24.86-42.79,31.53-66.79,2.25-8.08,5.28-16.6,3.83-25.03l42.13,18.26c.46,1.59,1.27,3.77,1.32,5.48.12,6.07-3.71,14.53-5.64,20.38-11.5,34.69-28.14,64.03-52.22,91.4-48.26,54.88-116.57,90.19-190.16,94.55-74.91,4.44-149.59-22.79-205.43-72.57-55.78-49.75-83.48-117.48-87.78-191.25Z"/>
  <path class="cls-25" d="M2454.1,469.99c.9-72.56,29.67-140.24,81.65-191.01,50.43-49.27,125.71-80.07,196.22-78.73,79.21,1.5,146.69,33.93,200.76,90.64,48.48,50.86,71,121.07,69.36,190.56-.27,12.07,0,31.49-8.08,40.55l-42.13-18.26c8.43-18.33,6.03-52.63,2.56-72.3-10.65-60.62-42.84-112.67-93.35-147.99-50.09-35.01-112.89-46.46-172.75-36.05-61.77,10.58-118.06,45.71-154.09,97.04-23.54,33.52-35.15,73-36.34,113.84-13.65,5.79-29.24,9.37-43.82,11.72Z"/>
  <path class="cls-23" d="M2688.35,247.4c59.86-10.41,122.66,1.04,172.75,36.05,50.51,35.32,82.7,87.37,93.35,147.99,3.47,19.68,5.86,53.97-2.56,72.3,1.44,8.43-1.59,16.96-3.83,25.03-6.67,24-17.05,46.5-31.53,66.79-9.97,13.99-32.12,43.18-49.02,47.19l-.88,2.04c-36.98,30.62-89.54,45.3-136.7,46.46-61.57,1.51-118.97-22.31-163.17-65.02-46.21-44.65-67.68-104.54-68.83-167.96,1.2-40.84,12.8-80.32,36.34-113.84,36.02-51.33,92.32-86.45,154.09-97.04Z"/>
  <path class="cls-12" d="M2497.92,458.27c1.2-40.84,12.8-80.32,36.34-113.84,36.02-51.33,92.32-86.45,154.09-97.04-2.05,4.56-5.23,5.27-9.72,7-57.88,22.13-108.54,53.45-135.94,111.56-23.42,49.64-29.31,113.35-10.31,165.34,20.17,55.15,64.7,101.69,117.84,126.21,51.19,23.62,106.98,23.32,159.39,3.6,37.42-14.09,63.6-34.28,94.3-59.12l1.54,1.49c-11.72,12.87-28.6,25.15-37.95,39.27l-.88,2.04c-36.98,30.62-89.54,45.3-136.7,46.46-61.57,1.51-118.97-22.31-163.17-65.02-46.21-44.65-67.68-104.54-68.83-167.96Z"/>
  <path class="cls-5" d="M2705.81,257.32c56.44-5.82,103.95,11.3,147.91,46.37,37.47,29.89,63.77,78.59,68.95,126.26,4.69,43.23-1.93,91.88-30.16,126.67-29.06,35.83-86.07,43.94-129.88,48.72l-.34.11c-40.57,5.84-81.11-.83-116.84-21.17-42.81-24.38-75.44-62.85-88.19-110.82-11.77-44.3-5.62-89.09,18-128.49,27.7-46.2,79.84-74.66,130.57-87.64Z"/>
  <path class="cls-25" d="M2722.66,277.46c4.71-.65,10.28-1.74,14.87-.1,5.01,1.79,9.21,6.14,11.21,11.01,2.61,6.29,2.39,11.82-.34,18.05-3.32,7.48-8.13,8.88-15.07,11.36l-.34.11c-5.69.53-9.35.03-14.07-3.58-4.44-3.39-7.3-9.52-7.42-15.02-.22-10.26,4.37-15.07,11.16-21.82Z"/>
  <path class="cls-25" d="M2856.97,343.4l10.31-1.49c4.79,2.7,5.28,3.96,7.99,8.83-2.34,13.55-27.84,33.92-38,44l-71.73,70.77c-15.07,14.77-30.02,31.1-47.19,43.43-30.31-14.86-58.81-36.44-87.14-54.89-11.77-7.67-23.74-16.63-36.68-22.07l-1.64-.67c-2.05-3.15-6.3-5.06-8.79-8.02-4.25-5.09-4.13-6.82-3.47-13.02,3-3.49,4.71-4.4,9.16-5.52,9.77,1.78,22.3,12.97,30.82,18.44l93.86,60.84,142.51-140.62Z"/>
  <path class="cls-15" d="M782.59,2087.4l182.68-31.85c8.11,20.71,15.46,43.54,26.21,62.95,7.14.43,22.75-.73,27.42,4.16l5.35,31.35,676.25.07c18.76,1.1,39.56,2.41,58.16.04l222.83-.11,59.68.17c10.77.05,22.29-.8,32.89.8l38.4.76,366.9-.53,82.82-.5c13.99-.05,29.58,1.46,43.23-1.21l.51-.87c5.76-10.23,16-58.58,12.99-69.9l177.02,1.35c6.91,7.12,7.06,43.84,6.47,54.96-.07,1.64-.54,2.94-1.03,4.48,1.47,4.77,1.39,5.69.2,10.56,19.32,2.91,256.86,3,262.68,0l1.76.18c34.88,3.32,72.24.41,107.49.26l177.17.71,52.71.19c8.38.05,18.71-1,26.79.84,7.62,1.74,15.24,6.81,20.15,12.84,5.59,6.86,7.86,15.18,6.67,23.94-1.37,10.05-7.18,17.78-15.29,23.55-2.22,1.6-6.11,4.29-8.65,5-11.94,3.34-33.48.68-46.28.69l-134.67.09c0,9.32,2.2,22.57-2.91,30.23,2.15,9.88.88,17.11-4.66,25.84-6.62,10.47-17.27,19.31-29.58,22.06-18.71,4.19-42.96,1.36-62.4,1.34l-129.84-.17-510.31-.12-1512.47-.44-343.55-.18-81.1-.23c-12.72-.05-28.53,1.6-40.78-1.64-5.31-1.4-10.12-3.45-14.76-6.42-12.44-7.94-19.3-19.83-22.53-33.98-2.33-11.4-1.2-24.57-1.28-36.24l-116.4-.41c-16.74-.07-36.54,1.98-52.87-.87-5.27-.92-10.92-4.95-14.78-8.61-7.5-7.12-11.71-14.96-11.96-25.39-.22-9.48,1.97-16.1,8.68-22.98,2.65-2.71,9.57-8.71,13.13-9.76,6.65-1.96,16.28-1.01,23.22-1l45.92.07,189.82-.05,2.97.59c27.29,1.96,54.89,1.1,82.24,1.01,20.42-.07,41.75,1.1,62.04-1.23l20.04-10.27c20.5-12.83,29.16-33.63,34.58-56.1Z"/>
  <path class="cls-25" d="M2618.94,2082.72l177.02,1.35c6.91,7.12,7.06,43.84,6.47,54.96-.07,1.64-.54,2.94-1.03,4.48,1.47,4.77,1.39,5.69.2,10.56-6.86,1.35-15.46.36-22.49.32l-44.77-.17-82.87.5c-14.97.09-31.34,1.52-46.04-1.23l.51-.87c5.76-10.23,16-58.58,12.99-69.9Z"/>
  <path class="cls-25" d="M782.59,2087.4l182.68-31.85c8.11,20.71,15.46,43.54,26.21,62.95,7.14.43,22.75-.73,27.42,4.16l5.35,31.35-296.29-.24,20.04-10.27c20.5-12.83,29.16-33.63,34.58-56.1Z"/>
  <path class="cls-24" d="M497.24,2258.64l-.25-36.7,2753.91-.42c.12,10.24,1.03,21.11-1.69,31.06,2.15,9.88.88,17.11-4.66,25.84-6.62,10.47-17.27,19.31-29.58,22.06-18.71,4.19-42.96,1.36-62.4,1.34l-129.84-.17-510.31-.12-1512.47-.44-343.55-.18-81.1-.23c-12.72-.05-28.53,1.6-40.78-1.64-5.31-1.4-10.12-3.45-14.76-6.42-12.44-7.94-19.3-19.83-22.53-33.98Z"/>
  <path class="cls-8" d="M1298.98,442.47c19.56-30.01,41.05-54.68,65.65-80.46,57.33-60.09,123.31-109.99,202.28-137.94,117.51-41.59,234.28-17.97,342.69,36.36,31.5,15.79,60.57,35.66,92.46,50.71-20.62,43.71-28.23,88.54-11.75,135.28,13.59,38.55,43.15,71.19,80,88.84,39.49,18.91,83.65,19,124.4,4.21l11.37-4.84c17.22-6.21,37.07-20.36,50.95-32.12,11.33,1.77,24.21.72,35.75.61,36.82-.35,73.71-4.6,110.08-10.11,14.78-2.24,31.21-3.75,45.4-8.49l2.43-17.28c-.44,75.97,23.22,146.53,77.4,201.63,55.73,56.68,127,90.18,207.11,90.55,75.42.35,149.99-26.39,203.79-80.16,33.44-33.4,56.81-67.53,72.29-112.55,2.64-7.62,7.18-18.12,7.67-26.12.1-1.82-.34-2.9-.95-4.59l.85.96c6.13,6.42,16.27,9.39,24.33,12.84l37.83,17.58c40.35,19.61,78.03,42.62,115.26,67.55,97.74,65.41,182.47,148.73,246.95,247.17,88.73,135.48,137.28,304.08,137.41,465.59.2,230.03-97.94,458.82-260.36,620.72-34.44,34.35-72.59,64.6-112.69,92.12-22.57,15.5-48.8,35.21-77.35,35.1l-51.58-.8c5.59,10.21.37,35.93-.68,47.96-.56,6.21-.37,13.34-1.76,19.37-.39,1.67-1.32,2.77-2.32,4.11-5.81,3-243.36,2.9-262.68,0,1.2-4.87,1.27-5.79-.2-10.56.49-1.54.95-2.84,1.03-4.48.59-11.12.44-47.84-6.47-54.96l-177.02-1.35c3,11.33-7.23,59.67-12.99,69.9l-.51.87c-13.65,2.68-29.24,1.16-43.23,1.21l-82.82.5-366.9.53-38.4-.76c-10.61-1.6-22.12-.76-32.89-.8l-59.68-.17-222.83.11c-18.6,2.38-39.4,1.06-58.16-.04l-676.25-.07-5.35-31.35c-4.67-4.89-20.28-3.73-27.42-4.16-10.75-19.41-18.1-42.24-26.21-62.95l-182.68,31.85c-5.42,22.47-14.08,43.27-34.58,56.1l-20.04,10.27c-20.29,2.33-41.62,1.16-62.04,1.23-27.35.09-54.95.95-82.24-1.01l-2.97-.59c-5.94-1.13-12.1-4.01-17.59-6.53-20.28-9.3-31.28-25.65-38.96-45.8-18.1-4.9-37.62-19.1-53.15-29.49-74.77-50.06-139.73-110.32-189.49-185.83-94.07-142.74-125.84-313.8-91.49-480.99,27.17-132.24,108.71-250.2,213.5-333.3,23.89-18.95,50.31-34.94,75.72-51.73l.11-2.33c-11.9-8.73-31.45-6-45.75-7.02-12.93-.93-24.87-2.84-37.28-6.78-32.68-10.38-62.21-34.9-77.89-65.48-16.55-32.26-19.12-68.81-7.91-103.19,7.54-23.13,20.97-43.76,39.13-59.92,16.96-15.09,37.63-26.37,59.83-31.47,20-4.59,41.87-3.44,62.26-3.46,2.32,0,18.42.8,19.47.02,2.83-2.09,9.63-22.99,11.87-27.51,21.33-43.11,56.31-79.32,99.25-101.24,53.43-27.26,115.5-32.23,172.53-13.68,61.65,20.06,106.03,65.74,135.59,122.1,2.43,4.64,3.51,8.58,8.7,10.15l3.07-3.03c8.62,8.36,15.71,12.26,27.94,12.18,8.75-.05,13.85-4.39,20.4-9.47l11.07-9.53c7.72-7.74,21.55-25.06,31.43-28.79,10.8,5.71,22.63,11.11,34.91,12.47,4.48,10.86,3.1,26.68,3.86,38.51,1.07,13.39.95,33.32,11.47,42.86,8.76,7.94,17.41,7.73,28.39,6.76l7.34-.73c3.01-1.33,6.06-2.98,8.61-5.08,10.16-8.38,9.62-20.24,11.15-32.21,24.2-6,56.49-15.85,77.94-29.07,8.7,8.71,17.47,20.73,30.62,20.98,4.56.09,10.01-1.57,14.34-2.91l1-.41c7-3.29,17.37-10.64,19.52-18.44.89-3.23.81-5.26-.27-8.35-2.81-8.04-8.54-15.13-12.96-22.4l-21.68-37.96c13.37-12.32,23.64-26.15,33.98-40.97,17.39,5.66,35.32,12.74,53.38,15.83l16.43-12.53c3.05-2.76,5.13-5.52,6.97-9.22,2.84-5.72,4.29-15.2,1.85-21.24-5.34-13.21-41.83-28.05-55.1-33.2l-1.91-.73c2.15-9.76,3.7-20.37,4.13-30.38.25-5.89-2.16-21.18-.34-25.86,1.66-4.26,57.27-22.07,64.41-35.77,2.56-4.91,2.78-10.95,1.36-16.23-2.62-9.74-8.99-18.85-18.15-23.47-9.85-4.97-34.87,5.73-45.01,8.72Z"/>
  <path class="cls-13" d="M2075.71,995.66c.19-2.45.67-2.57,2.09-4.45l10.01,4.67-11.88,37.33c-1.83-11.71.21-25.46-.22-37.54Z"/>
  <path class="cls-13" d="M630.45,1844.63l10.5-.27,19.77,38.15c-3.51.77-6.89,1.64-10.49,1.87l-19.78-39.75Z"/>
  <path class="cls-26" d="M2808.68,1276.15l21.96.7c4.3,4.83,6.23,8.51,5.28,15.28-.27,2.02-1.03,3.34-1.98,5.12-7.13,4.08-19.73,2.54-28.04,3.54l-2.47-4.24,5.1-4.63c.95-6.62.86-7.46-2-13.5l2.15-2.27Z"/>
  <path class="cls-14" d="M3163.41,1602.82c10.8-.59,25.38,14.15,33.58,20.79l-2.3,2.62c-4.86,4.28-9.23,9.82-13.6,14.64l-27.79-23.33,10.11-14.72Z"/>
  <path class="cls-7" d="M2894.58,1429.83l5.67-14.52c5.4.46,15.26,12.2,19.08,16.69,13.34,15.67,26.23,45.98,23.64,66.9l-1.03,4.94-.51,1.9-10.5-24.53c-3.93-7.93-24.28-45.97-28.36-48.63-1.9-1.24-5.76-1.98-7.99-2.75Z"/>
  <path class="cls-7" d="M2972.62,1459.75c-.39-6.1.44-11.5,3.18-17.03,10.33-20.83,34.27-35.71,55.61-42.86,8.77-2.94,26.57-7.57,35.02-3.35-2.3,5.78-3.1,6.84-7.94,10.74-8.72,1.27-16.51,5.18-24.45,8.82-20.2,9.26-44.01,21.87-57.96,39.71-.93,1.21-1.66,2.39-2.27,3.8l-1.2.16Z"/>
  <path class="cls-8" d="M614.74,1807.7l.9.6c9.94,7.01,19.68,24.18,26.96,34.18,4.12-6.68.12-18.44,5.46-24.43l13.19,1.47,3.12,3.96,9.35,1.04-.99,51.23-1.21,6.65-8.62,1.43-2.18-1.33-19.77-38.15-26.04-34.08-.17-2.59Z"/>
  <path class="cls-13" d="M664.37,1823.49l9.35,1.04-.99,51.23-1.21,6.65-8.62,1.43,1.47-60.36Z"/>
  <path class="cls-29" d="M2973.81,1459.59c.61-1.4,1.34-2.59,2.27-3.8,13.95-17.84,37.76-30.46,57.96-39.71,7.94-3.63,15.73-7.55,24.45-8.82-.51,9.73-15.7,23.73-22.93,30.17-16.68,14.83-38.13,26.42-60.94,25.95l-.81-3.8Z"/>
  <path class="cls-29" d="M3054.7,1511.45c-1.32,8.49-13.46,16.6-20.08,21.46-23.01,16.91-56.35,30.56-85.48,25.78l-7.33-1.81c30.36-24.44,75.49-36.16,112.89-45.43Z"/>
  <path class="cls-29" d="M2894.58,1429.83c2.22.77,6.08,1.52,7.99,2.75,4.08,2.66,24.42,40.7,28.36,48.63l10.5,24.53,2.78,3.23c.56,5.5.93,8.51-2.54,13.33-1.12,1.53-2.93,2.73-4.4,3.84-4.93-5.96-12.38-10.09-17.61-16.1-12.5-14.37-20.56-35.64-22.98-54.46-1.05-8.21-.27-16.41-1.86-24.59l-.24-1.16Z"/>
  <path class="cls-2" d="M660.34,1746.42l34.04,25.34c-.14,15.79,2.39,37.26-1.17,52.31l-19.48.46-9.35-1.04-3.12-3.96c2.14-24.44,1.28-48.71-.91-73.1Z"/>
  <path class="cls-7" d="M2939.67,1545.6c10.09-2.43,15.12-10.86,23.03-17.48,30.48-25.51,60.84-32.58,99.5-29.39l1.88,3.11c-2.61,4.58-4.96,6.81-9.38,9.62-37.39,9.27-82.53,20.99-112.89,45.43l-2.98-.1c1.22-4.02,1.15-7.02.83-11.18Z"/>
  <path class="cls-25" d="M981.68,720.1c7.72-7.74,21.55-25.06,31.43-28.79,10.8,5.71,22.63,11.11,34.91,12.47,4.48,10.86,3.1,26.68,3.86,38.51l-1.46,2.67c-5.05,1.17-10.89-1.15-15.74-2.62-18.2-5.52-35.74-14.28-53-22.23Z"/>
  <path class="cls-15" d="M3187.69,983.39c5.35-8.77,2.71-27.74,2.59-38.1l37.25-.44c.07,10.91,2.37,27.37-3.13,36.95,3.93,7.92,1.93,18.59,1.32,27.21l-36.17.84c.15-8.22,1.61-19-1.86-26.46Z"/>
  <path class="cls-13" d="M2973.81,1459.59l.81,3.8c-4.2,11.8-11.87,22.38-16.78,34.04-5.69,13.45-9.72,37.64-18.17,48.17.32,4.16.39,7.17-.83,11.18-2.37,11.83-4.88,23.68-6.13,35.68-1.29,12.56-2.34,24.88-2.44,37.52-.05,9.98,1.98,24.18-2.44,33.28.34,3.21.56,5.67-.05,8.88.44,3.24.73,5.92.2,9.2,4.54,13.49,3.54,29.01,5.47,43.08,1.73,12.92,7.77,32.1,6.33,44.61,1.93,4.99,3.05,7.69,1.59,12.94,3.42,5.99,4.35,9.98,3.3,16.82-1.81,1.01-4.91.03-6.96-.23l.24-1.49c.59-6.45-2.17-14.79-3.4-21.17-2.25-11.81-2.76-30.13-10.04-39.41.81-1.82,1.76-3.7,2.05-5.7.93-6.47.07-9.2-3.57-14.37.46-3.62.37-5.64-.61-9.16,3.17-8.47.68-16.29.46-25.04-.42-17.05,2.3-37.3-1.64-53.76l.51-3.97c.81-4.56.59-6.73-1.1-11.02l1.47-2.1c3.03-5.28,1.93-6.74.37-12.42l2.32-4.04c2.98-6.29,3.03-16.12,4.2-23.2,1.81-10.78,11.63-36.98,8.3-45.58,1.47-1.11,3.27-2.31,4.4-3.84,3.47-4.83,3.1-7.83,2.54-13.33,6.69-5.62,9.74-18.03,13.77-26.04,4.08-8.13,9.48-15.7,14.63-23.19l1.2-.16Z"/>
  <path class="cls-7" d="M2832.55,1535.01l.2-1.27c1.05-7.86-.1-15.77-.85-23.61,37.15,18.8,73.95,49.66,90.56,88.83,1.56,5.68,2.66,7.14-.37,12.42l-1.47,2.1c-6.67-11.39-24.37-22.81-34.34-32.33l-48.31-48.95-5.42,2.81Z"/>
  <path class="cls-29" d="M2832.55,1535.01l5.42-2.81,48.31,48.95c9.96,9.52,27.67,20.94,34.34,32.33,1.69,4.29,1.91,6.47,1.1,11.02l-.51,3.97c-1.9-1.31-1.03-.95-3.27-1.55l-17.9-5.48c-39.08-16.1-52.61-50.54-67.48-86.43Z"/>
  <path class="cls-29" d="M2927.77,1672.15c11.41-1.38,23.64-13.8,32.95-20.28,9.7-6.77,20-12.64,30.63-17.82,13.9-6.77,28.28-11.3,42.64-16.84,5.76-2.23,13.24-7.64,18.98-5.66-.73,8.69-15,20.37-21.49,25.91-28.99,24.75-66.36,37.31-103.51,43.89.54-3.28.24-5.96-.2-9.2Z"/>
  <path class="cls-26" d="M2783.58,1317.13c2.32-6.62,2.66-10.15,1.29-17.11-6.5-5.4-24.01-2.73-32.97-3.86-3.88-3.9-5.72-5.83-6.42-11.37,9.09-15.74,28.21-.6,38.05-12.28,5.5-6.52,2.42-12.06,2.44-19.77,0-6.54,1.88-8.07,6.23-12.51l8.23-.06c.83.72,4.74,3.6,4.98,4.33,3.1,9.12-3.27,21.58,2.66,30.8l.61.84-2.15,2.27c2.86,6.04,2.96,6.88,2,13.5l-5.1,4.63,2.47,4.24c-.12,8.99,2.25,26.01-3.64,32.36-5.37,1.43-6.57,1.66-11.92.25-5.2-5.8-3.93-9.81-6.77-16.26Z"/>
  <path class="cls-8" d="M2790.46,1298.43l-3.49-4.47c-2.42-4.14-3.71-7.52-1.76-12.14,1.98-4.66,6.15-6.46,10.62-8.01,5.5.84,6.47,1.04,10.7,4.61,2.86,6.04,2.96,6.88,2,13.5l-5.1,4.63c-4.64,2-7.94,2.06-12.97,1.89Z"/>
  <path class="cls-29" d="M2797.89,1683.23c8.74-3.33,16.07-1.06,24.86,1.06,28.4,6.85,59.01,19.2,85.73,30.92l14.51,7.13c1.29-2.37.51-3.33,0-5.9,3.64,5.17,4.49,7.91,3.57,14.37-.29,2-1.25,3.88-2.05,5.7-32.51,2.07-70.58-10.75-97.33-29-10.38-7.07-19.73-16.17-29.28-24.28Z"/>
  <path class="cls-7" d="M2927.82,1663.27c10.79-5.3,18.07-22.65,27.23-31.68,31.7-31.25,66.85-35.05,109.22-34.51-3.05,6.19-5.03,10.91-11.31,14.47-5.74-1.98-13.21,3.43-18.98,5.66-14.36,5.53-28.75,10.07-42.64,16.84-10.62,5.18-20.93,11.05-30.63,17.82-9.31,6.49-21.54,18.9-32.95,20.28.61-3.22.39-5.67.05-8.88Z"/>
  <path class="cls-26" d="M946.33,1185.69l5.01.85c4,3.96,4.71,8.6,6.03,14.01l.45,2c1.41,5.77,9.61,16.35,15.4,18.14,5.54,1.71,14.11.58,18.86,3.8,2.09,1.42,1.95,3.89,2.48,6.28-5.06,6.2-16.76,5.55-24.28,9.88-11.66,6.71-12.71,21.63-16.28,33.52-2.89-.56-5.49-1.54-8.23-2.58l-3.84-10.24c-3.3-8.59-7.25-17.77-16.31-21.72-4.54-1.98-9.61-2.49-14.1-4.66-4.3-2.07-4.22-2.37-5.75-6.95,5.43-7.6,16.94-8.93,25.83-11.73,7.33-9.31,10.77-19.58,14.73-30.6Z"/>
  <path class="cls-25" d="M944.52,1215.29c2.65.44,5.78.81,8.24,1.92,5.35,2.42,6.35,5.79,8.29,10.81-.87,5.55-3.21,8.51-6.57,12.92l-8.71-.77c-4.36-1-6.4-4.82-8.28-8.49.68-8.2,2.29-10.02,7.03-16.4Z"/>
  <path class="cls-7" d="M2939.77,1769.04c7.55-3.35,12.19-13.99,17.66-20.08,32.61-36.14,72.59-47.93,119.5-50.18-2.83,6.1-4.84,11.67-10.8,15.41-7.33-2.49-31.02,10.2-38.3,13.84-20.83,10.41-42.4,24.04-59.91,39.45-3.54,3.12-15.46,15.79-19.12,16.13-1.78.17-5.54-1.21-7.45-1.62,1.47-5.25.34-7.95-1.59-12.94Z"/>
  <path class="cls-29" d="M2941.35,1781.98c1.91.42,5.67,1.79,7.45,1.62,3.66-.35,15.58-13.02,19.12-16.13,17.51-15.41,39.08-29.05,59.91-39.45,7.28-3.64,30.97-16.33,38.3-13.84-.42,11.73-21.69,32.54-29.89,40.17-23.98,22.31-58.23,42.95-91.59,44.45,1.05-6.85.12-10.83-3.3-16.82Z"/>
  <path class="cls-7" d="M2797.89,1683.23l-1.22-2.02-20.2-28.88c36.98-.35,74.05,4.6,106.46,23.76,14.73,8.71,26.94,19.61,39.44,31.19.98,3.52,1.07,5.54.61,9.16.51,2.57,1.29,3.53,0,5.9l-14.51-7.13c-26.72-11.72-57.32-24.07-85.73-30.92-8.79-2.12-16.12-4.38-24.86-1.06Z"/>
  <path class="cls-24" d="M3345.88,1007.26c-5.5,1.68-12.72.87-18.51.88l-36.37-.02-.59-90.37h39.88s-.02,45.76-.02,45.76c0,5.9-1.47,13.68,2.27,18.23l11.87.46c4.64,6.14,4.74,11.83,3.49,19.63-.32,2.13-1.07,3.54-2.03,5.44Z"/>
  <path class="cls-2" d="M637.52,1630.82l43.61,32.39c6.18,4.79,13.75,9.63,18.59,15.81l-4.16,89.65-36.93-27.12c2.14-8.82-.51-18.99-1.84-27.83-4.26-28.24-11.32-55.53-19.28-82.9Z"/>
  <path class="cls-26" d="M3027.32,1217.74c10.06,1.74,20.2,1.34,30.38,1.21l89.63.29,9.01.02,66.46.43c10.94-.05,22.89.83,33.73-.44l61.47-.13c10.6-.03,22.93,1.1,33.24-1.08,13.99.48,30.09,1.89,43.91-.21,3.15,1.31,4.91,2.16,7.35,4.68l-1.76,4.08c-1.66,1.08-2.98,2.09-5.01,2.37-14.19,2.03-31.07.4-45.65.43l-104.73-.1-311.23,1.15c-3.47-2.58-3.96-2.72-5.4-7.02l2.91-5.35c22.64,1.65,45.26.93,67.95.88,8.33-.02,19.93,1.43,27.72-1.23Z"/>
  <path class="cls-26" d="M445.92,1170.72c6.95.2,14.68,1,20.92,4.18,10.35,5.28,18,14.32,20.98,25.62,2.68,10.14.45,20.39-4.67,29.32-6.47,11.28-15.93,16.04-28.05,19.47-7.87-.05-15.68-.67-22.84-4.27-8.62-4.34-16.86-12.74-19.88-22.04-3.37-10.38-2.71-22.53,2.81-32.07,7.09-12.25,17.58-16.87,30.73-20.22Z"/>
  <path class="cls-8" d="M441.1,1185.17l15.58-.13c5.83.59,11.61,5.12,14.83,9.83,4.13,6.05,5.29,14.39,3.71,21.46-2.23,9.96-8.38,14.44-16.59,19.5l-12.93.37c-6.77-.94-13.84-6.75-17.49-12.43-3.76-5.85-4.65-14.39-3.02-21.12,2.1-8.7,8.84-13.11,15.92-17.47Z"/>
  <path class="cls-26" d="M2335.38,688.87c7.59-.44,15.75-1.31,23.09,1.07,11.73,3.8,21.52,12.87,26.6,24.1,4.57,10.1,3.57,24.06-.61,34.17-5.84,14.13-15.69,20.71-29.36,26.44-8.27.34-16.67.7-24.51-2.37-10.15-3.97-20.13-13.07-24.39-23.19-4.9-11.62-4.83-23.2-.12-34.75,5.74-14.1,15.81-19.85,29.31-25.46Z"/>
  <path class="cls-8" d="M2335.25,699.8c5.21-.27,11.21-.92,16.34.09,9.67,1.9,17.51,8.46,22.47,16.84,3.84,6.5,4.61,17,2.23,24.15-4.31,12.97-10.75,18-22.83,23.74-4.29.33-9.24.93-13.46-.11-9.04-2.24-16.8-7.47-21.73-15.42-4.67-7.53-6.33-16.87-4.13-25.48,3.22-12.58,10.5-17.76,21.1-23.8Z"/>
  <path class="cls-2" d="M351.75,1533.66l82.44,41.53c8.05,4.3,15.33,16.31,20.81,23.72l37.19,49.61-104.01-15.42-36.43-99.43Z"/>
  <path class="cls-17" d="M3163.41,1602.82l2.1-3.02-12.8-27.52-20.1,1.18-4.71-40.42,20.52-.49c4.57-9.23,6.4-20.41,8.89-30.39l-13.73-12.08c6.47-8.87,16.19-16.98,21.3-26.56l1.07-2.12c6.47,5.09,11.58,11.32,16.93,17.54l-1.78,6.53v2.02c-.12,5.76-6.13,12.75-8.13,18.37-10.48,29.04-5.91,61.11,14.36,84.78,14.51,16.93,37.61,30.42,60.18,31.99,10.72.74,19.42-.95,29.65-3.61,7.74-2.01,19.73-6.96,24.62-13.33,7.13,3.28,10.99,7.3,16.12,13.03l-1.15,5.74c-2.44,6.54-10.38,11.63-15.73,16.25-5.23-4.41-11.38-10.83-17.41-13.85-7.06,3.23-18.34,6.78-23.57,12.32-.49,5.58,0,9.94-3.49,14.52-9.89,2.7-22.18.52-32.36-.17-.61-3.38-1.71-15.6-3.98-17.36-6.18-4.77-17.95-6.67-25.5-9.96l2.3-2.62c-8.21-6.65-22.79-21.38-33.58-20.79Z"/>
  <path class="cls-2" d="M848.13,1725.01c-5.07,12.26-10.17,23.81-18.02,34.63-31.37,43.22-84.42,56.52-134.28,64.55l1.69-52.2c16.05-11.43,35.07-20.03,52.59-29.05l88.75-43.97,9.27,26.04Z"/>
  <path class="cls-2" d="M623.08,1471.66l82.07,81.45-3.91,82.33c-.24,9.55,1.74,29.62-1.9,37.37l-43.26-32.12c-5.88-4.27-14.6-9.26-19.49-14.43.85-9.59-2.7-17.97-4.46-27.24l-6.4-43.71c-3.04-27.57-2.6-55.92-2.64-83.65Z"/>
  <path class="cls-2" d="M703.93,1149.16c6.59,6.38,6.22,7.93,6.42,16.84l-.64,243.43c-20.75-30.06-45.61-56.33-72.08-81.4,10.74-41.93,24.48-82.56,41.65-122.34l15.89-34.26c3.82-7.6,8.42-13.47,8.77-22.27Z"/>
  <path class="cls-11" d="M414.88,1756.12l5-.68,1.99-3.59,87.51,4.13,15.2,5.19c8.19,2.77,18.92,12.51,26.43,17.32,19.78,12.68,41.51,24.56,63.89,31.79l26.04,34.08-10.5.27c-15.33,3.22-33.48,2.23-49.06.9-67.25-5.73-123.39-38.04-166.51-89.41Z"/>
  <path class="cls-20" d="M3344.42,982.19l53.12-.57c-.05,29.15,2.88,227.18-2.37,236.22-13.82,2.1-29.92.68-43.91.21,5.1-13.26,1.25-39.93,1.22-54.8l-.98-153.17-5.62-2.81c.95-1.91,1.71-3.31,2.03-5.44,1.25-7.8,1.15-13.49-3.49-19.63Z"/>
  <path class="cls-2" d="M391.52,1636.22l61.32,9.79c12.26,1.8,30.14,2.54,41.41,7.39,4.31,1.85,6.46,6.36,10.25,8.75,1.6,5.33,3.61,7.5,7.57,11.33,3.22,3.12,7.61,9.38,9.66,13.32,1.93,3.71,6.51,7.56,9.16,10.99,9.23,11.95,20.84,24.68,28.4,37.56,8.28,14.1,20.76,26.11,30.22,39.37,6.8,9.55,15.63,26.59,25.25,32.98l.17,2.59c-22.38-7.23-44.11-19.12-63.89-31.79-7.51-4.81-18.25-14.55-26.43-17.32l-15.2-5.19,27.87-.37-22.22-7.56c-53.41-20.42-99.94-58.88-123.51-111.83Z"/>
  <path class="cls-2" d="M636.44,1331.24c12.75,12.31,72.07,70.45,72.23,86.52l-3.95,130.76-86.22-85.66c4.51-6.45,3.86-21.96,4.49-30.08l6.58-65.1c1.65-12.18,4.51-24.36,6.87-36.44Z"/>
  <path class="cls-2" d="M812.51,1592.26l.42,3.14c.93,23.82,8.81,45.62,15.78,68.15,3.19,10.31,7.68,21.32,8.4,32.11l-138.28,71.01,4.5-88.38,109.17-86.03Z"/>
  <path class="cls-9" d="M414.88,1756.12c-41.77-51.83-64.25-110.47-79.69-174.7-10.24-42.6-17.69-85.1-23.09-128.58-1.11-8.96-5.6-28.37-1.05-35.8,5.35.41,5.72,1.34,9.64,4.72l1.98,4.8,29.08,107.09,36.43,99.43-21.5-2.23c4.37,1.53,8.28,2.57,12.87,3.16l11.97,2.2c23.57,52.95,70.1,91.41,123.51,111.83l22.22,7.56-27.87.37-87.51-4.13-1.99,3.59-5,.68Z"/>
  <path class="cls-17" d="M1440.04,1433.16l-2.12,11.89c-2.67,3.7-6.02,7.88-10.73,8.91-10.48,2.3-24.39.53-35.35.43l-74.51-.47-106.64-.65c-18.75-.12-38.26.92-56.9-.82-5.12-.48-8.83-2.32-13.04-5.22-6.51-4.49-11.19-11.41-12.2-19.35-1.88-14.72-.45-31.67-.43-46.61l1.24-106.76c.79-51.87-1.89-105.16,1.61-156.81.33-4.84.67-10.59,4.11-14.34l1.19-1.15c4.95-4.88,9.51-5.16,16.07-5.78l-.66,62.67-.28,181.74c.13,23.88-2.57,52.28,1.42,75.69.74,4.34,2.42,7.91,5.5,11.11,3.33,3.46,7.09,5.4,11.8,6.2,7.42,1.26,16.44.32,23.99.33l48.26.04,184.37-.54,13.3-.53Z"/>
  <path class="cls-29" d="M320.69,1421.77l.44-3.73c9.98-.99,20.45,1.63,30.18,3.84,34.99,7.93,68.25,22.88,99.48,40.3l3.23,131.14c-7.09-9.32-16.36-24.99-25.98-31.22l3.5,6.59c-3.33,1.41-4.2.03-7.25-1.52l-46.95-23.35c-7.72-3.78-16.96-9.71-25.59-10.15l-29.08-107.09-1.98-4.8Z"/>
  <path class="cls-2" d="M322.67,1426.57c2.94,3.09,8.61,7.69,9.91,11.63,1.68,5.06,9.43,10.63,12.38,15.1,6.46,9.8,14.58,18.57,21.06,28.38,3.91,5.93,9.53,9.97,12.82,16.48,1.68,3.32,5.14,6.13,7.33,9.16,12.16,16.87,26.91,33.93,37.81,51.42,1.19,1.91,2.1,2.37,4.06,3.35l3.5,6.59c-3.33,1.41-4.2.03-7.25-1.52l-46.95-23.35c-7.72-3.78-16.96-9.71-25.59-10.15l-29.08-107.09Z"/>
  <path class="cls-12" d="M923.27,1070.78c-2.46,3.27-5.41,7.23-9.36,8.78-3.04,1.2-10.76,1.66-13.95.94-5.6-1.27-11.01-8.82-14.81-13.01l-35.89-39.51c-3.2-3.47-8.2-10.56-11.89-12.9-3.69-2.34-15.77-.91-20.67-.89l-189.34.4-55.64-.12c-13.09-.05-27.65,1.76-39.61-4.51-9.66-5.07-17.04-13.3-19.7-24.02-4.66-18.69-1.38-45.94-1.45-65.49-.09-25.52-3-54.84.16-79.99.67-5.33,2.86-10.58,5.72-15.11,7.68-12.19,17.73-15.54,31.12-18.53-3.07,3.36-11.91,11.55-13.01,15.75-2.39,9.18-.21,25.2-.2,34.95.02,36.06-1.54,73.09.55,109.01.47,8.04,3.34,15.73,9.68,21.02,3.13,2.61,6.56,4.61,10.62,5.24,26.91,4.14,59.26.78,86.67.62l171.11-.18,31.16.05c1.56,0,7.51-.52,8.66.01.47.22,67.73,73.56,70.06,77.49Z"/>
  <path class="cls-16" d="M3159.72,879.24c1.27-2.14,3.71-5.22,4.42-7.49,1.47-4.8-.1-16.57-.15-21.89l-.61-67.69,115.43-.38.42,120.09-118.89-.79c.95-1.81,1.88-3.48,2.37-5.49,1.54-6.45.39-10.85-2.98-16.36Z"/>
  <path class="cls-12" d="M2356.86,893.08l-1.01,1.88c-4.17,7.31-10.7,10.12-13.93,18.77l-.82,2.14c-5.52,15.16-4.29,180.99,1.36,192.67,2.78,5.74,9.49,13.34,15.62,15.55,5.2,1.87,11.33,2.47,16.82,2.59l62.33-.26,275.88-.19c9.99-.02,49.58-3.26,55.73-.53-5.2,6.19-19.76,16.72-27.94,17.59-27.38,2.92-56.59.89-84.16.95h-170.77s-37.98-.06-37.98-.06c-3.52,0-11.04-.64-14.24.52-4.07,1.49-10.34,7.26-14.1,9.89-16.41,11.51-33.63,26.04-51.35,35.14-8.02,7.33-18.11,12.75-27.31,18.48l20.79-66.16c-7.49-.72-15.34-1.3-22.37-4.2-10.5-4.33-20.44-13.54-24.45-24.35-4.97-13.41-4.68-176.57.81-188.23l4.09-8.03c8.89-14.41,21.06-20.23,37-24.17Z"/>
  <path class="cls-12" d="M2374.91,1126.69l62.33-.26c-12.35,1.68-23.77,12.3-33.61,19.55l-38.87,27.84c-.78-13.36,6.75-33.95,10.15-47.13Z"/>
  <path class="cls-11" d="M552.42,1546.01l5.04-59.28c14.1-100.56,53.76-204.18,108.48-289.51,10.21-15.93,22.79-36.63,38-48.06-.35,8.8-4.95,14.67-8.77,22.27l-15.89,34.26c-17.17,39.78-30.9,80.4-41.65,122.34l-16.09-14.1-2.04.4,16.94,16.92c-2.36,12.08-5.22,24.26-6.87,36.44l-6.58,65.1c-.63,8.12.01,23.63-4.49,30.08l-33.59-29.2v2.01l38.18,35.98c.03,27.73-.4,56.09,2.64,83.65l6.4,43.71c1.76,9.27,5.31,17.65,4.46,27.24-10.91-7.05-23.28-17.13-35.79-20.69-5.77-6.3-9.61-14.24-14.86-21.01-10.44-13.44-21.95-26.08-33.51-38.55Z"/>
  <path class="cls-16" d="M569.07,806.52c10.3-36.94,30.85-69.08,65.09-88.12,29.76-16.55,66.16-19.89,98.67-10.07,33.19,10.03,61.96,36.25,77.7,66.67,5.1,9.85,8.45,20.39,11.9,30.89,22.78.13,49.88-2.66,72.08,1.4l-325.44-.76Z"/>
  <path class="cls-2" d="M812.98,1589.54c-9.24,2.67-19.72,12.89-27.65,18.88l-81.73,64.69,3.46-105.97c.23-3.74-.12-11.14,1.19-14.26,3.28-7.84,18.18-19.66,24.62-26.15l109.99-104.52,22.09,130.11c-7.47,3.73-21.1,8.88-23.88,16.55-11.34,1.32-18.09,5.96-24.91,15.17-1.33,1.8-2.21,3.48-3.18,5.49Z"/>
  <path class="cls-20" d="M3162.46,979.99c5.72,1.5,22.74.33,25.23,3.4,3.47,7.46,2,18.24,1.86,26.46l36.17-.84c.61-8.62,2.61-19.29-1.32-27.21l34.07.5,1.44,187.46.05,32.74c0,3.33.83,9.63-.02,12.71-.24.87-2.69,3.22-3.4,4.06-10.84,1.27-22.79.38-33.73.44l-66.46-.43c.95-1.71,2.76-4.08,3.32-5.89,2.54-8.52-.02-28.54-.02-38.34l.12-129.51c.07-21.11,2.49-42.92.73-63.87l1.95-1.66Z"/>
  <path class="cls-20" d="M3195.73,1452.34c2.54,1.1,5.98,3.12,8.6,3.73,4.86,1.13,22.03-5.46,27.75-7.07.66-4.1,1.61-16.9,4.4-19.17,12.14.44,25.64-.24,37.42,2.85.29,6.31-.73,17.7,2.59,22.75l24.01,11.7,13.85-12.81c10.45,10.48,19.76,21.01,28.58,32.89-3.17,5.22-11.41,10.41-16.29,14.26l7.03,28.8c7.03.52,14.51-.81,19.32,4.53.44,10.94,1.1,27.09-4.76,36.63-7.11,2.65-9.57-.93-15.66-.04-3.74.55-17.12,23.44-19.44,27.55,6.69,2.92,10.4,9.75,14.43,15.53-2.17,4.93-5.79,7.97-10.8,10l1.15-5.74c-5.13-5.73-8.99-9.75-16.12-13.03-4.88,6.37-16.88,11.31-24.62,13.33-10.23,2.66-18.93,4.36-29.65,3.61-22.57-1.57-45.67-15.06-60.18-31.99-20.27-23.67-24.84-55.74-14.36-84.78,2-5.62,8.01-12.61,8.13-18.37v-2.02l1.78-6.53c-5.35-6.22-10.45-12.45-16.93-17.54,6.59-6.28,15.02-15.02,23.72-17.74,3.93,3.31,4.76,3.53,6.06,8.68Z"/>
  <path class="cls-17" d="M3236.61,1484.43c15.34-2.38,28.21-.44,41.45,7.81,11.09,6.92,18.93,19.98,21.83,32.47,3.05,13.14.22,27.59-7.18,38.77-8.57,12.96-20.91,19.48-35.81,22.54-7.99,2.7-17.66.85-25.62-1.52-11.92-3.55-22.13-12.93-27.75-23.9-5.86-11.5-8.48-27.75-4.23-40.16,6.55-19.19,19.76-27.8,37.29-36.01Z"/>
  <path class="cls-8" d="M3237.03,1506.41c9.38-.96,18-2.25,26.43,3.04,7.47,4.68,12.33,12.81,13.97,21.36,1.42,7.42-.51,17.3-4.98,23.52-5.42,7.57-12.07,10.62-20.98,12.08-3.42.96-5.93,1.27-9.48.71-8.11-1.3-15.68-5.23-20.32-12.22-5.32-8.01-7.03-17.1-4.59-26.47,3-11.52,10.16-16.45,19.95-22Z"/>
  <path class="cls-19" d="M662.9,1883.84l8.62-1.43,1.21-6.65.39,6.11c5.13,3.37,19.42,1.81,25.87,1.84l82.8.38c10.01.03,24.05-1.82,33.51.69,7.25,1.93,13.86,8.07,15.63,15.47,1.7,7.15,1.03,19.53-3.19,25.57-2.84,4.08-6.87,8.87-12.04,9.74-4.93.83-11.72.59-16.71.06l-3.85,31.77-280.24-.19-2.25-.54-2.36-30.79c-5.44-.1-13.7.53-18.17-2.91-5.03-3.89-8.81-8.96-9.41-15.38-.76-8.23.1-20.45,6.11-26.6,3.5-3.58,8.99-5.77,13.88-6.47,13.08-1.89,28.78-.25,42.09-.26l105.44.13c3.6-.23,6.98-1.1,10.49-1.87l2.18,1.33Z"/>
  <path class="cls-3" d="M510.29,1935.88l184.81-.62,64.4-.49c12.87-.1,26.79-1.13,39.49.86l-3.85,31.77-280.24-.19-2.25-.54-2.36-30.79Z"/>
  <path class="cls-2" d="M712.16,1157.76c30.45,33.51,53.85,74.19,74.01,114.53,5.74,11.5,12.75,23.44,16.89,35.6.71,2.07,1.23,3.61,2.29,5.55,17.22,31.61,27.11,71.4,37.03,105.9l-133.75,126.47,1.81-55.43,1.53-57.06c.03-4.38-1.21-15.88.12-19.39,1.28-3.37,10.74-11.39,13.77-14.71l76.28-82.37-1.09-2.26c-31.76,27.76-60.89,62.84-88.6,94.66l-.29-251.49Z"/>
  <path class="cls-17" d="M2937.69,1798.57c2.05.27,5.15,1.25,6.96.23,13.29,2.31,27.04,1.57,40.49,1.61,32.31.08,66.99-2.64,99.04.26,7.67-.06,16.97-2.04,23.08,3.62,1.2,1.13,3.76,4.52,4.23,6.15,1.12,3.93.27,11.77.34,16.14.2,14.85,1.69,31.44-.05,46.14-.54,4.76-4.4,8.37-8.08,11.01-3.44,2.46-15.78,2.61-20.32,3.05-13.51-2.08-29.75-.32-43.47-.11.49,6.76-1.93,8.87-5.5,14.41l-4.1.37-197.07,1.2-32.92.73c-2.66.13-9.57,1.33-11.77.65-1.86-.56-4.88-3.27-6.59-4.43,1.56-7.29,1.93-7.19-2.03-13.43-3.22-1.02-6.37-1.37-9.6-2.24-8.23-2.23-12.02-9.04-16.17-15.8,7.25-16.53-2.61-40.46,3.13-57.35,1.39-4.09,5.06-8.23,9.21-9.65,8.23-2.82,22.52-.76,31.56-.76l103.51.06c9.84,0,27.89,2.65,36.15-1.83Z"/>
  <path class="cls-28" d="M3084.18,1800.68c7.67-.06,16.97-2.04,23.08,3.62,1.2,1.13,3.76,4.52,4.23,6.15,1.12,3.93.27,11.77.34,16.14.2,14.85,1.69,31.44-.05,46.14-.54,4.76-4.4,8.37-8.08,11.01-3.44,2.46-15.78,2.61-20.32,3.05-13.51-2.08-29.75-.32-43.47-.11.49,6.76-1.93,8.87-5.5,14.41l-4.1.37-197.07,1.2-32.92.73c-2.66.13-9.57,1.33-11.77.65-1.86-.56-4.88-3.27-6.59-4.43,1.56-7.29,1.93-7.19-2.03-13.43-3.22-1.02-6.37-1.37-9.6-2.24-8.23-2.23-12.02-9.04-16.17-15.8l301.24.68,28.8-68.12Z"/>
  <path class="cls-17" d="M2779.91,1886.15l165.91.26,61.11-.32c10.43-.06,22.76-1.24,32.97.55.49,6.76-1.93,8.87-5.5,14.41l-4.1.37-197.07,1.2-32.92.73c-2.66.13-9.57,1.33-11.77.65-1.86-.56-4.88-3.27-6.59-4.43,1.56-7.29,1.93-7.19-2.03-13.43Z"/>
  <path class="cls-20" d="M2781.94,1899.58c1.71,1.16,4.74,3.87,6.59,4.43,2.2.68,9.11-.52,11.77-.65l32.92-.73,197.07-1.2,1.54,3.81c-51.61,79.78-110.05,152.62-185.4,211.22-11.58,9.01-27.6,23.29-42.16,26.55l-2.88.5c.49-1.54.95-2.84,1.03-4.48.59-11.12.44-47.84-6.47-54.96l1.1-2.21c3.37-7.37-11.89-174.71-15.12-182.28Z"/>
  <path class="cls-6" d="M3079.27,879.11l.76-1.29c2.98-5.29,3.27-8.94,3.08-14.91,7.6-4.5,32.61-1.87,42.47-1.89,2.74,4.15,2.71,7.69,1.86,12.59-.32,1.93-1.29,3.7-2.12,5.43,11.06-.06,23.52-1.31,34.41.2,3.37,5.52,4.52,9.91,2.98,16.36-.49,2.01-1.42,3.68-2.37,5.49,6.15,10.91,3.86,64.43,2.12,78.9l-1.95,1.66c1.76,20.95-.66,42.77-.73,63.87l-.12,129.51c0,9.8,2.56,29.83.02,38.34-.56,1.81-2.37,4.18-3.32,5.89l-9.01-.02-89.63-.29c1.34-1.92,2.37-3.22,2.78-5.59,1.29-6.94.07-16.24,0-23.35l-.1-42.15-.22-204.21v-42.8c0-4.25,1.07-12.39,0-16.25-.39-1.4-2.64-3.93-3.52-5.25l22.62-.25Z"/>
  <path class="cls-19" d="M3147.34,1219.24c7.84-14.58.61-202.2,3.88-238.24,4.3-1.36,5.1-.69,9.28.64,1.76,20.95-.66,42.77-.73,63.87l-.12,129.51c0,9.8,2.56,29.83.02,38.34-.56,1.81-2.37,4.18-3.32,5.89l-9.01-.02Z"/>
  <path class="cls-15" d="M3079.27,879.11l.76-1.29c2.98-5.29,3.27-8.94,3.08-14.91,7.6-4.5,32.61-1.87,42.47-1.89,2.74,4.15,2.71,7.69,1.86,12.59-.32,1.93-1.29,3.7-2.12,5.43,6.86,10.58,2.88,76.55,2.81,93.16h-44.3s-.37-65.57-.37-65.57c-.02-5.23,1.27-15.67-.12-20.19-.68-2.28-2.86-5.18-4.05-7.34Z"/>
  <path class="cls-29" d="M504.49,1662.15c-1.03-5.15-6.83-10.68-10.13-14.9l-27.3-36.61c-2.65-3.63-8.06-9.25-9.49-13.15-3.5-9.55-1.6-29.02-1.89-39.59l-2.7-94.28c37.92,23.38,68.62,50.32,99.44,82.39,11.56,12.48,23.07,25.11,33.51,38.55,5.26,6.77,9.09,14.71,14.86,21.01.85,2.94,1.7,2.84,4.12,4.55,11.09,6.02,22.72,12.79,32.61,20.7,7.95,27.37,15.02,54.66,19.28,82.9,1.33,8.83,3.98,19.01,1.84,27.83l-10.47-6.02-.7,2.19,12.87,8.71c2.2,24.39,3.06,48.66.91,73.1l-13.19-1.47c-5.35,5.98-1.35,17.74-5.46,24.43-7.28-10.01-17.02-27.17-26.96-34.18l-.9-.6c-9.61-6.38-18.44-23.43-25.25-32.98-9.45-13.26-21.93-25.27-30.22-39.37-7.56-12.88-19.17-25.61-28.4-37.56-2.65-3.43-7.23-7.28-9.16-10.99-2.05-3.94-6.44-10.2-9.66-13.32-3.95-3.83-5.96-6-7.57-11.33Z"/>
  <path class="cls-11" d="M647.47,1737.72l12.87,8.71c2.2,24.39,3.06,48.66.91,73.1l-13.19-1.47c-2.8-9.2,1.76-25.55,1.78-36.12.02-14.03-5.64-30.83-2.38-44.21Z"/>
  <path class="cls-11" d="M604.91,1610.11c11.09,6.02,22.72,12.79,32.61,20.7,7.95,27.37,15.02,54.66,19.28,82.9,1.33,8.83,3.98,19.01,1.84,27.83l-10.47-6.02c-7.43-8.59-8.37-30.81-10.89-42.53-2.94-13.66-6.31-26.93-11.12-40.07-2.94-8.01-6.26-15.99-10.65-23.32-4.07-6.8-8.78-11.51-10.6-19.49Z"/>
  <path class="cls-17" d="M3039.9,1886.65c13.73-.2,29.97-1.97,43.47.11,2.81,7.19,2.76,6.94-.32,14.04.93,2.07,1.64,3.5,1.83,5.79,1,11.18-1.59,25.21-2.44,36.63l-7.03,89.74c-.95,12.74.71,33.19-3.35,44.91-.61,1.71-1.88,3.36-3.03,4.74,5.59,10.21.37,35.93-.68,47.96-.56,6.21-.37,13.34-1.76,19.37-.39,1.67-1.32,2.77-2.32,4.11-5.81,3-243.36,2.9-262.68,0,1.2-4.87,1.27-5.79-.2-10.56l2.88-.5c14.56-3.26,30.58-17.54,42.16-26.55,75.35-58.59,133.79-131.44,185.4-211.22l-1.54-3.81,4.1-.37c3.57-5.53,5.98-7.65,5.5-14.41Z"/>
  <path class="cls-14" d="M3039.9,1886.65c13.73-.2,29.97-1.97,43.47.11,2.81,7.19,2.76,6.94-.32,14.04-4.3,1.46-10.01.68-14.58.64l-34.07-.38c3.57-5.53,5.98-7.65,5.5-14.41Z"/>
  <path class="cls-16" d="M2931.66,1218.1c3.27-6.58,2.3-14.73,2.27-21.93l-.24-45.89-.88-165.58,96.99.62.02-84.05-96.03.03-1.03-118.75,116.84-.36.24,67.78c-.02,8.37,1.71,20.55-2.47,27.76l-.66.99,9.94.64c.88,1.32,3.13,3.85,3.52,5.25,1.07,3.85,0,11.99,0,16.25v42.8l.22,204.21.1,42.15c.07,7.12,1.29,16.41,0,23.35-.42,2.36-1.44,3.66-2.78,5.59-10.18.12-20.32.52-30.38-1.21-7.79,2.66-19.39,1.22-27.72,1.23-22.69.05-45.31.77-67.95-.88Z"/>
  <path class="cls-27" d="M3046.72,878.73l9.94.64c.88,1.32,3.13,3.85,3.52,5.25,1.07,3.85,0,11.99,0,16.25v42.8l.22,204.21.1,42.15c.07,7.12,1.29,16.41,0,23.35-.42,2.36-1.44,3.66-2.78,5.59-10.18.12-20.32.52-30.38-1.21,3.88-5.99,2.81-13.77,2.81-20.66l-.12-45.94.54-203.79.05-45.99c.02-6.77-1.15-15.94,1.54-22.1l14.58-.53Z"/>
  <path class="cls-19" d="M514.9,1967.21l280.24.19-12.55,120c-5.42,22.47-14.08,43.27-34.58,56.1l-20.04,10.27c-20.29,2.33-41.62,1.16-62.04,1.23-27.35.09-54.95.95-82.24-1.01l-2.97-.59c-5.94-1.13-12.1-4.01-17.59-6.53-20.28-9.3-31.28-25.65-38.96-45.8-5.59-19.93-5.71-40.46-6.93-61.01l-4.61-73.4,2.25.54Z"/>
  <path class="cls-27" d="M514.9,1967.21l280.24.19-12.55,120c-5.42,22.47-14.08,43.27-34.58,56.1l-20.04,10.27c-20.29,2.33-41.62,1.16-62.04,1.23-27.35.09-54.95.95-82.24-1.01,7.31-4.84,16.42-6.92,24.59-9.94,25.51-9.43,55.31-18.15,76.58-35.67,41.74-34.39,50.53-88.8,55.73-139.67l-153.6-.16h-45.96c-8.17,0-17.18.89-25.13-1.06l-1-.27Z"/>
  <path class="cls-27" d="M2465.85,1382.5l138.48-1.22c31.68.03,59.18,9.71,81.99,32.41,22.42,22.29,32.75,53.05,32.46,84.23-.2,18.32-5.01,37.55-8.13,55.61l-18.9,106.84-22.81,132.01-17.54,104.83c-2.17,11.89-3.3,28.24-9.18,38.72-5.06-14.99-4.69-35.74-6.91-51.74l-23.28-125.54c-2.47-11.01-3.32-26.05-9.53-35.4.93-7.2-3.35-17.46-5.35-24.42-3.79-13.18-5.64-27.33-12.24-39.44l.9-3.96c-3-10.11-5.32-31.66-13.34-38.22l1.69-4.56c-23.5-78.78-49.16-148.19-97.55-215.56l-10.77-14.57Z"/>
  <path class="cls-27" d="M2465.85,1382.5l138.48-1.22c26.06,20.01,36.71,40.73,40.98,73.5,3.3,25.37-4.18,54.83-8.57,79.94l-14.02,85.56c-2.52,16.52-10.77,90.39-17.56,100.34-.64.93-1.88,1.93-2.66,2.62.93-7.2-3.35-17.46-5.35-24.42-3.79-13.18-5.64-27.33-12.24-39.44l.9-3.96c-3-10.11-5.32-31.66-13.34-38.22l1.69-4.56c-23.5-78.78-49.16-148.19-97.55-215.56l-10.77-14.57Z"/>
  <path class="cls-19" d="M2465.85,1382.5l138.48-1.22c26.06,20.01,36.71,40.73,40.98,73.5,3.3,25.37-4.18,54.83-8.57,79.94l-14.02,85.56c-2.52,16.52-10.77,90.39-17.56,100.34-.64.93-1.88,1.93-2.66,2.62.93-7.2-3.35-17.46-5.35-24.42-3.79-13.18-5.64-27.33-12.24-39.44l3.86-3.96c5.15-25.1,7.4-51.41,11.26-76.83,5.5-36.06,16.1-76.57,15.02-112.88-.29-9.28-3.15-18.65-6.69-27.18-6.69-16.16-20.37-31.09-36.34-38.12-10.65-4.67-24.25-3.52-35.73-3.56l-59.67.23-10.77-14.57Z"/>
  <path class="cls-16" d="M1558.34,621.86c-13.84-1.6-27.64-3.73-40.82-8.4-31.54-11.19-62.22-36.57-76.64-67.17-12.98-27.54-14.56-62.61-3.48-91.16,28.97-74.69,132.71-91.06,202.79-90.93l36.3,1.21c2.75.16,9.78,1.47,12.18.79.87-.25,4.51-4.6,5.56-5.66,5.22-5.27,8.91-9.11,15.91-12.1l3.14-1.32c5.13-2.6,18.83-2.92,24.56-1.44l1.99.55c2.36.52,4.13.65,6.36,1.72,2.4,1.16,1.14.72,3.14,1.38,8.55,2.81,14.73,8.91,21.65,14.33,3.38,2.64,5.42,4.88,8.16,8.13,2.51,2.99,3.98,4.86,5.14,8.67,1.48,4.85,3.17,14.89,5.39,18.81,2.16,3.82,10.6,7.22,14.36,9.25,13.63,7.35,26.25,13.25,34.5,27.16,13.84,23.33-8.42,45.02-15.58,65.8-4.21,12.21-6.1,26.14-9.11,38.82l2.55,3.04c-50.38,24.48-100.95,64.94-159.95,43.94-17.65-6.28-32.42-18.44-46.35-30.6-19.93,19.47-37.56,41.16-51.74,65.19Z"/>
  <path class="cls-8" d="M1722.88,350.72c6.44-.16,13.99.4,20.1,2.54,8.22,2.88,19.95,9.73,24.02,17.62l-2.21,2.03c-5.2,3.94-10.12,3.55-16.3,2.85-18.19-4.71-36.38-6.13-54.97-8.2,4.66-4.19,9.11-7.71,14.2-11.32,5.43-3.86,8.66-4.58,15.16-5.51Z"/>
  <path class="cls-23" d="M569.07,806.52l325.44.76c19.5-.07,47.67-4.52,62.67,9.94,11.78,11.35,11.44,22.16,11.5,37.51l-.16,73.93c.01,11.87,1.64,27.16-.91,38.67-1.78,8.04-6.17,16.56-11.9,22.5l-.34.29c-9.5,9.51-18.32,14.48-30.93,18.98l-2.68,2.18c.16,18.74-2.07,41.27,1.5,59.49-2.34-3.93-69.59-77.27-70.06-77.49-1.16-.53-7.1-.01-8.66-.01l-31.16-.05-171.11.18c-27.41.16-59.76,3.51-86.67-.62-4.06-.63-7.49-2.63-10.62-5.24-6.34-5.29-9.22-12.98-9.68-21.02-2.09-35.92-.53-72.95-.55-109.01,0-9.75-2.19-25.77.2-34.95,1.09-4.2,9.94-12.39,13.01-15.75l21.12-.29Z"/>
  <path class="cls-4" d="M924.45,1009.11c-1.13-1.32-1.5-1.55-2.15-3.44-1.31-3.84-1-8.88,1.15-12.29,10.12-.45,20.48-.49,30.37-2.85l1.55-.4c-9.5,9.51-18.32,14.48-30.93,18.98Z"/>
  <path class="cls-12" d="M760.31,893.95c-1.43,9.72-2.88,17.22,3.08,25.84,3.43,4.96,8.92,7.95,14.15,10.72-1.71,2.16-2.99,3.04-5.79,3.11-4.66.1-9.01-2.09-12.28-5.27-5.2-5.05-8.66-11.62-8.19-19.01.46-7.11,4.09-10.89,9.03-15.39Z"/>
  <path class="cls-25" d="M611.68,881.07l9.94,1.63c6.03,1.48,11.19,6.44,13.93,11.94,3.01,6.03,3.78,12.95,1.6,19.34-3.19,9.35-9.73,13.3-17.89,17.65l-9.63-1.07c-6.8-1.66-12.39-7.14-15.89-13.06-3.27-5.51-3.56-14.36-1.46-20.41,3.1-8.94,11.38-12.67,19.4-16.02Z"/>
  <path class="cls-25" d="M693.92,880.84l9.13.18c6.35.62,12.31,4.12,16.27,9.07,4.33,5.41,6.01,12.15,4.78,18.96-1.98,10.95-8.82,15.47-17.52,20.93-4.03.13-8.8.33-12.78-.51-6.11-1.28-11.65-6.09-14.79-11.37-3.75-6.31-4.11-14.37-1.81-21.23,2.93-8.74,9.14-11.89,16.71-16.04Z"/>
  <path class="cls-25" d="M760.31,893.95c7.13-7.17,12.56-13.31,23.4-13.54,7.51-.16,13.52,2.39,18.62,7.85,4.22,4.52,6.75,12.18,6.3,18.33-.5,6.75-5.08,14.26-10.42,18.25-6.16,4.61-13.19,5.26-20.67,5.67-5.23-2.77-10.72-5.75-14.15-10.72-5.96-8.63-4.51-16.12-3.08-25.84Z"/>
  <path class="cls-25" d="M862.42,881.01l13.74-.21c6,.7,10.59,4.16,14.28,8.82,4.36,5.5,5.62,12.28,4.67,19.15-1.48,10.66-8.59,15.56-16.6,21.48-3.62.23-7.93.72-11.51.08-6.72-1.21-13.1-6.46-16.86-11.98-4.11-6.02-5.02-12.61-3.41-19.67,2.01-8.83,8.69-12.98,15.69-17.67Z"/>
  <path class="cls-20" d="M1152.34,1096.45c20.55,1.38,38.52-.96,58.09,7.33,24.58,15.58,30.39,29.37,40.54,55.11l74.21-.7,15.31-.32,40.52-.41c19.84-.49,56.29-7.01,71.52,7.38l1.25,1.24,1.62,6.76.35,22.5.03,12.79-.2,91.24c-.3,16.61,2.22,120.14-4.82,127.85-2.56,2.81-7.07,5-10.72,5.95l-13.3.53-184.37.54-48.26-.04c-7.55-.02-16.57.93-23.99-.33-4.72-.8-8.48-2.75-11.8-6.2-3.08-3.2-4.76-6.77-5.5-11.11-3.99-23.42-1.29-51.81-1.42-75.69l.28-181.74.66-62.67Z"/>
  <path class="cls-25" d="M1193.99,1313.18l128.82.02,28.11.22c2.54.04,8.39-.59,10.65.2,1.01.36,3.48,3.26,4.4,4.14l-1.47,9.16c-19.42,4.01-44.8,1.04-65.12,1.04l-65.73-.02c-11.92-.02-24.87,1.05-36.62-1.03-4.29-4.88-3.16-7.63-3.05-13.74Z"/>
  <path class="cls-25" d="M1194.31,1238.23l168.2-.38,42.52.14c3.32.1,10.56-.51,13.33.53,1.1.41,3.09,2.58,4.09,3.41v8.73s-224.81,0-224.81,0c-4.14-4.45-3.23-6.74-3.32-12.43Z"/>
  <path class="cls-25" d="M1195.73,1274.94h164.38s41.59.03,41.59.03c6.55,0,13.2-.87,19.29,1.83,2.59,5.55,1.36,6.85-.16,12.61l-170.69.08-37.4-.15c-3.61-.02-10.11.91-13.27-.09-1.18-.38-3.15-2.2-4.25-2.97-1.86-5.14-.96-6.24.52-11.35Z"/>
  <path class="cls-20" d="M1152.34,1096.45c20.55,1.38,38.52-.96,58.09,7.33,24.58,15.58,30.39,29.37,40.54,55.11l-99.29.23.66-62.67Z"/>
  <path class="cls-23" d="M2356.86,893.08c18.41-4.48,45.7-1.09,64.98-1.05l148.35.31,118.04-.19c20.27-.07,41.35-1.27,61.57.08,6.15.41,11.99,2.04,17.27,5.31,9.06,5.62,17.02,16.05,19.34,26.53,1.81,8.24,1.05,17.58,1.1,25.99l.15,47.33-.02,67.19c-.02,11.74,1.15,24.56-.32,36.16-.73,5.78-3.57,10.83-6.77,15.6-3.15,4.68-6.25,7.71-11.7,9.37-6.15-2.73-45.75.5-55.73.53l-275.88.19-62.33.26c-5.49-.12-11.62-.72-16.82-2.59-6.14-2.21-12.84-9.8-15.62-15.55-5.65-11.68-6.88-177.51-1.36-192.67l.82-2.14c3.22-8.65,9.76-11.46,13.93-18.77l1.01-1.88Z"/>
  <path class="cls-25" d="M2393.8,959.33l95.57-.25c9.13,0,27.82-2.39,35.78,1.54.68,7.2,1.12,11.67-2.76,18.21-2.47,1.04-1.32.82-4.08.9h-94.74c-5.85,0-22.14,1.97-27.05,0-1.17-.47-1.8-1.76-2.71-2.63l-.02-17.77Z"/>
  <path class="cls-25" d="M2393.78,1051.76l133.57-.09c6.69,0,25.74-2.27,30.38-.02,1.1.53,1.86,1.59,2.78,2.38l.05,13.74-4.71,4.59c-12.36,1.82-26.6.34-39.2.34l-86.8-.07c-9.48-.03-28.14,2.57-35.92-2.12l-.15-18.75Z"/>
  <path class="cls-25" d="M2544.13,960.51c12.09-3.29,175.68-3.4,182.54.11.61,7.06,1.12,11.59-2.81,17.94l-2.2,1.25-130.93-.02c-10.36,0-35.66,2.77-43.3-1.77-.07-6-.27-10.59-2.71-16.24l-.59-1.27Z"/>
  <path class="cls-25" d="M2586.8,1006.41l67.09-.17c7.06,0,19.42-1.62,25.23,2l.07,17.4c-1.93,1.77-1.64,2.22-4.4,2.25l-190.33-.09-90.48-.12-.09-20.69,192.9-.57Z"/>
  <path class="cls-16" d="M1210.43,1103.78l.36-38.17c0-1.15.45-8.13,0-8.82-2-3.07-9.99-7.67-13.14-9.67-4.21-2.68-9.73-5.13-12.53-9.35,7.32-27.09,18.21-55.19,30.86-80.2,9.8,2.45,19.14,4.07,29.21,4.89,4.04-1.53,6.61-5.97,9.19-9.27,15.34-19.64,30.2-36.17,48.84-52.88,1.68-5.25-2.97-15.85-4.15-21.68-.67-3.33-1.95-9.37,0-12.14,5.3-7.5,68.05-30.96,79.37-32.45,8.89,3.76,15.56,20.53,20.22,28.61,25.72-4.08,51.3-2.51,76.87,1.45,10-8.6,15.06-21.84,25.95-31.02,11.48,3,22.68,9.19,33.25,14.53,18.96,9.57,35.35,17.42,50.05,33.2l-12.96,30.31c19.78,21.79,37.42,43.18,49.77,70.17,5.41,11.84,8.85,24.36,15.24,35.76l36.75,4.92,12.57,35.79c-.64,14.32,3.52,49.8-7.4,59.23-10.55,9.1-27.28,4.11-36.93,11.24-5.5,4.06-7.76,17.79-9.81,24.19-4.36,13.62-10.94,26.19-18.12,38.51-3.9,6.69-9.92,14.11-11.85,21.61,7.26,10.01,16.65,19.68,16.33,32.46-5.05,8.61-15,15.16-22.65,21.46-20.45,16.84-43.6,37.25-68.87,46.11-9.28-7.22-19.9-17.71-30.66-22.27-13.24,3.32-27.06,7.61-40.61,9.03l.2-91.24-.03-12.79-.35-22.5-1.62-6.76-1.25-1.24c-15.23-14.38-51.69-7.87-71.52-7.38l-40.52.41-15.31.32-74.21.7c-10.15-25.75-15.96-39.54-40.54-55.11Z"/>
  <path class="cls-8" d="M1325.18,1158.19c-19.85-28.51-29.85-67.07-23.41-101.6,6.95-37.24,26.62-68.97,58.38-90.14,28.58-19.05,65.28-24.33,98.63-17.19,33.35,7.15,61.44,27.38,79.45,56.23,18.99,30.41,26.66,71.57,18.27,106.66-7.84,32.81-30.15,62.25-59.01,79.44-12.05,7.17-27.76,14.59-41.69,16.54l-.03-12.79c13.45-3.34,26.57-8.65,38.39-15.9,26.18-16.05,44.59-43.85,51.44-73.61,7.12-30.94,1.06-63.98-15.95-90.72-16.63-26.14-45.41-48.58-76.26-54.72-28.62-5.69-62.02-.44-86.31,15.89-27.7,18.62-47.06,46.38-53.12,79.29-7.11,38.58,5.01,70.95,26.54,102.3l-15.31.32Z"/>
  <path class="cls-16" d="M1340.49,1157.86c-21.54-31.35-33.65-63.72-26.54-102.3,6.06-32.91,25.42-60.67,53.12-79.29,24.29-16.33,57.68-21.58,86.31-15.89,30.85,6.14,59.63,28.58,76.26,54.72,17.01,26.74,23.07,59.78,15.95,90.72-6.85,29.76-25.26,57.56-51.44,73.61-11.82,7.25-24.94,12.56-38.39,15.9l-.35-22.5-1.62-6.76,22.09-11.09c21.51-12.32,34.26-32.61,40.38-56.11,5.81-22.29-.09-49.25-11.71-68.77-11.07-18.6-30.29-33.7-51.54-38.75-26.03-6.18-49.98-2.24-72.49,11.96-19.11,12.06-32.72,33.94-37.71,55.61-2.01,12.05-2.26,22.86-1.69,34.97,2.44,6.85,3.65,14.15,6.58,20.81,7.69,17.46,20.53,29.17,33.33,42.75l-40.52.41Z"/>
  <path class="cls-26" d="M1337.64,1058.5c6.67-26.33,20.58-49.31,44.52-63.42,22.84-13.46,48.96-16.45,74.44-9.54,23.74,6.44,42.84,24.09,54.9,45.13,12.26,21.38,17.11,49.1,10.36,73.06-7.4,26.3-25.18,47.29-49.04,60.33l-17.41,8.76-1.62-6.76,22.09-11.09c21.51-12.32,34.26-32.61,40.38-56.11,5.81-22.29-.09-49.25-11.71-68.77-11.07-18.6-30.29-33.7-51.54-38.75-26.03-6.18-49.98-2.24-72.49,11.96-19.11,12.06-32.72,33.94-37.71,55.61-2.01,12.05-2.26,22.86-1.69,34.97l-1.08,2.22-2.06.09c-4.44-12.2-3.67-25.31-.32-37.7Z"/>
  <path class="cls-8" d="M1342.79,1058.92c5-21.67,18.6-43.55,37.71-55.61,22.52-14.2,46.46-18.14,72.49-11.96,21.25,5.05,40.47,20.15,51.54,38.75,11.62,19.51,17.52,46.47,11.71,68.77-6.12,23.49-18.87,43.78-40.38,56.11l-22.09,11.09-1.25-1.24c-15.23-14.38-51.69-7.87-71.52-7.38-12.8-13.57-25.63-25.29-33.33-42.75-2.94-6.66-4.14-13.96-6.58-20.81-.57-12.11-.32-22.92,1.69-34.97Z"/>
  <path class="cls-26" d="M1422.16,1031.53c8.95-.65,18.86.47,27.12,4.18,12.08,5.44,20.54,16.47,24.95,28.74,4.12,11.46,2.8,25.16-2.67,35.94-7.31,14.41-19.23,20.37-33.91,25.16-11.2,1.05-23.28.63-33.21-5.27-10.07-5.98-18.06-17.09-20.7-28.48-3.13-13.48-1.02-28.42,6.44-40.1,7.71-12.07,18.38-17.11,31.98-20.17Z"/>
  <path class="cls-8" d="M1419.55,1038.86c8.36-.3,17.3-1.21,25.14,2.28l2.07.96c8.44,3.84,16.02,11.45,19.63,20.04,4.08,9.68,5.25,23.34.94,33.13-5.93,13.46-15.47,18.72-28.55,23.8-7.28.62-15.84,1.16-22.84-1.17-9.95-3.31-18.97-10.94-23.5-20.43-4.68-9.82-5.63-20.79-1.88-31.07l.86-2.29.72-1.98c4.73-12.07,16.24-18.37,27.42-23.27Z"/>
  <path class="cls-10" d="M1816.39,543.33c46.65-15.12,95.14-13.23,139.49,9.63,36.15,18.62,59.37,48.2,76.62,84.24,20.55-8.81,39.61-15.9,61.79-7.04,21.41,8.55,38.02,28.74,46.72,49.61,14.97,35.92,9.16,63.6,5.42,100.46l-6.24,62.39c-2,.92-5.29-.21-7.43-.67l-7.25-1.5c-39.86-6.25-68.62,26.73-79.5,61.24-2.63,8.33-4.3,33.55-10.34,38.01-1.03-.73-1.46-.94-2.25-1.81-7.24-8.04-13.68-59.78-14.42-71.57-.4-6.38,1.35-19.68-.6-25.14-1.12-3.14-9.59-10.74-12.15-13.82-18.31-22.03-21.85-47.05-22.08-74.65-28.52,25.24-60.31,41.27-96.44,52.91-13.21,4.26-30.66,9.23-44.7,8.43l-4.57-.55c-46.86,10.15-93.3,15.63-141.33,12.87-19.42-1.11-42.21-3.44-59.77-12.57l-10.17-4.25-1.57-.41c-6.99-1.96-12.48-5.28-18.57-9.14-2.87,9.75-6.37,20.03-7.75,30.11-1.86,13.67-.88,28.66-1.25,42.5-24.89-25.51-32.62-47.87-26.66-83.23.74-4.36,4.41-13.91,3.83-17.37-.85-5.12-14.56-18.1-17.99-23.77-6.33-10.5-11.85-24.26-15.14-36.07-8.94-32.13.41-62.14,16.24-90.29,14.18-24.04,31.81-45.72,51.74-65.19,13.93,12.16,28.7,24.32,46.35,30.6,59,21,109.57-19.46,159.95-43.94Z"/>
  <path class="cls-13" d="M1693.89,783.53l19.93,2.97c4.74,1.28,4.82,2.69,7.26,6.77-8.18.38-18.55,1.23-26.36-1.15l-.84-8.59Z"/>
  <path class="cls-24" d="M2087.46,649.21c4.77,1.48,8.53,3.15,12.35,6.42,19.55,16.77,31.48,41.43,33.38,67.03.93,12.47.51,17.67-7.68,27.13-2.48-1.19-8.64-4.67-9.71-7.11-1.51-3.43-1.18-12.29-1.6-16.33-3.02-28.94-13.96-42.79-34.57-62.27.38-6.75,3.64-10.02,7.83-14.86Z"/>
  <path class="cls-13" d="M1968.89,662.19c4.38,1.61,7.5,2.53,10.4,6.31-3.77,13.92-14.95,28.17-24.71,38.65-52.9,56.79-145.47,83.12-220.69,86.31-4.15-.02-4.82.11-8.45-2.24l-.05-7.33c6.23-5.97,28.4-6.11,37.34-7.33,61.84-8.4,129.1-27.6,173.99-73.31,12.31-12.54,21.61-27.1,32.16-41.05Z"/>
  <path class="cls-24" d="M1872.45,559.16l6.6,1.5c3.71,4.23,3.32,5.33,3.82,10.76-4.19,5.15-12.92,6.7-19.22,8.93l-37.11,14.93c-26.52,11.82-51.8,27.82-79.38,36.95-49.24,16.29-89.47,1.81-133.75-20.35-3.67,2.55-6.06,8.39-8.24,12.22-6.91,12.16-14.01,24.39-19.19,37.41-14.39,36.19-.42,70.6,30.11,91.91,5.81,4.06,18.56,8.96,21.08,14.89-1.58,4.9-4.3,6.99-8.15,10.27-8.36-2.11-16.35-5.32-23.4-10.35-21.92-15.65-38.19-36.69-42.29-63.8-5.15-34.03,13.68-77.83,34.36-104.62,1.6-2.08,11.16-13.18,12.47-13.37,1.71-.25,23.96,13.82,28.09,15.94,19.91,10.24,41.19,19.05,64.03,18.4,62.74-1.79,109.09-53.41,170.17-61.62Z"/>
  <path class="cls-13" d="M1637.36,813.79c10.78-6.58,44.16-2.45,58.16-2.8,99.54-2.51,212.12-25.18,284.28-99.45,9.17-9.44,18-20.53,24.54-31.95,4.27-7.46,6.27-15.26,12.33-21.62l6.18-.07,4.15,4.19c-2.58,31.63-21.11,55.6-42.19,77.7-.09,4.15.27,8.87-.64,12.91-28.52,25.24-60.31,41.27-96.44,52.91-13.21,4.26-30.66,9.23-44.7,8.43l-4.57-.55c-46.86,10.15-93.3,15.63-141.33,12.87-19.42-1.11-42.21-3.44-59.77-12.57Z"/>
  <path class="cls-6" d="M1984.8,739.79c-.09,4.15.27,8.87-.64,12.91-28.52,25.24-60.31,41.27-96.44,52.91-13.21,4.26-30.66,9.23-44.7,8.43l-4.57-.55c17.05-5.9,34.26-10.63,51.03-17.39,34.98-14.09,66.04-32.59,95.32-56.31Z"/>
  <path class="cls-21" d="M1838.46,813.49l4.57.55c14.04.8,31.49-4.17,44.7-8.43,36.12-11.64,67.91-27.67,96.44-52.91.23,27.6,3.78,52.62,22.08,74.65,2.55,3.08,11.02,10.68,12.15,13.82,1.95,5.46.2,18.76.6,25.14.74,11.79,7.18,63.53,14.42,71.57.79.88,1.22,1.08,2.25,1.81,6.04-4.46,7.71-29.67,10.34-38.01,10.88-34.51,39.64-67.49,79.5-61.24l7.25,1.5c2.14.45,5.43,1.58,7.43.67l.85,1.51c2.76,4.53,11.06,8.03,15.33,11.5,21.26,17.3,28.91,47.68,24.18,74.01-3.96,22.03-15.9,41.83-34.52,54.45-17.38,11.78-37.7,15.41-58.22,11.8l-10.01-4.67c-1.42,1.88-1.9,2-2.09,4.45l-.72,1.44c-7.97,16.54-11.45,35.13-18.66,52.05-25.21,59.16-69.12,111.07-130.8,133.39-10.23,3.7-20.44,6.8-31.09,9.07-1.83.39-10.85,1.18-11.88,1.99-.03.03-1.88,3.79-1.96,3.97l-.65,1.69-.45-1.2c-.11-.2-2.23-3.45-2.28-3.49-2.13-1.3-20.32-.22-24.24-.6-11.24-1.09-22.58-3.91-33.34-7.28-64.83-20.31-103.6-71.38-133.48-128.92l-12.57-35.79c-6.52-22.62-12.41-47.2-23.27-68.1-7.16-12.12-11.81-24.97-16.46-38.2-1.54-4.37-3.4-13.6-5.87-17.09-1.86-2.62-8.87-6.56-11.7-8.77-6.62-5.17-12.44-11.16-18.24-17.22.37-13.84-.61-28.83,1.25-42.5,1.37-10.08,4.88-20.37,7.75-30.11,6.09,3.86,11.58,7.18,18.57,9.14l1.57.41,10.17,4.25c17.56,9.13,40.35,11.46,59.77,12.57,48.03,2.76,94.47-2.73,141.33-12.87Z"/>
  <path class="cls-13" d="M1706.68,870.64l1.1-.17c7.39-.72,12.18-1.93,17.88,2.86,1.92,5.76,2.98,7.93,1.65,14.03-8.61,9.15-27.97,8.44-40.18,9.86-8.92-.03-14.71,1.71-21.78-3.99-.27-3.95-1.15-6.12,1.23-9.47,7.59-10.67,28.24-11.39,40.1-13.13Z"/>
  <path class="cls-28" d="M1800.34,952.76c2.76.95,4.2,2.29,6.36,4.18,2.58,14.21-1.03,35.73-7.8,48.55-4.39,8.33-12.06,16.95-12.53,26.56,12.5,19.37,30.62,1.87,46.72,11.9l-.59,4.64c-11.53,3.64-27.42,4.51-39.24,2.51-6.37-1.07-11.97-5.45-15.42-10.77-2.25-3.48-2.89-7.04-2.08-11.11,2.06-10.28,9.69-20.19,13.69-29.97,6.14-15,8.24-30.62,10.89-46.5Z"/>
  <path class="cls-28" d="M1935.1,1043.2c2.72,2.16,5.09,3.59,5.93,7.16-13.81,20.1-31,35.24-53.23,45.5-23.4,10.79-48.58,14.71-73.03,5.55l-6.7-4.79,1.37-2.95c15.38,1.04,28.4,4.19,43.96,1.55,33.41-5.69,62.06-24.58,81.69-52.02Z"/>
  <path class="cls-13" d="M1900.03,848.37c14.65-2.06,31.25-.6,44.37,6.67,6.36,3.53,10.89,7.72,12.87,14.92-2.87,4.7-3.77,4.74-8.61,6.89l-13.16-5.48c-9.93-1.88-21.02-2.15-31-.49-6.54,1.08-15.32,4.14-21.71,3.46-5.36-.56-6-2.35-9.5-6.21-1.18-6.5-.92-6.9,2.12-12.82,6.25-4.05,15.56-5.01,22.86-6.56l1.77-.38Z"/>
  <path class="cls-25" d="M1883.43,937.1c-3.08-1.51-4.68-1.62-5.79-5.13-.94-2.97-.21-6.75.11-9.81,5.16-7.93,15.17-22.02,25.21-23.78,10.01-1.75,23.78-1.3,31.98,5.46,9.75,8.05,14.08,14.46,16.84,26.72,2.17,9.66,3.47,14.56-2.77,23.7-3.5,5.13-8.35,6.85-14.06,8.54,2.86-4.19,6.32-8.35,7.62-13.31-4.02,3.43-5.83,5.91-11.3,6.56,2.01-6.41,3.67-13.1,1.8-19.77-1.71-6.1-6.19-12-11.88-14.92-7.01-3.6-16.78-4.97-24.17-1.98-8.14,3.29-10.48,10.21-13.57,17.7Z"/>
  <path class="cls-10" d="M1883.43,937.1c3.09-7.49,5.44-14.41,13.57-17.7,7.4-2.99,17.17-1.62,24.17,1.98,5.69,2.92,10.17,8.82,11.88,14.92,1.87,6.67.21,13.36-1.8,19.77,5.47-.66,7.29-3.14,11.3-6.56-1.3,4.95-4.76,9.12-7.62,13.31-6.3.93-11.69,4.01-18.13,4.56-9.66.83-16.54.19-24.13-6.42-7.59-6.61-8.54-14.28-9.26-23.85Z"/>
  <path class="cls-28" d="M2085.82,902.04c4.62-9.32,9.62-18.54,20.06-22.29,5.8-2.08,13.08-2.04,18.64.73,6.94,3.46,11.91,10.97,14.1,18.25,1.72,5.72,1.94,11.17,1.77,17.1l-5.81,8.72c-10.28,1.25-12.04-12.33-21.88-15.21-6.21-1.82-9.17,1.1-14.12,4.14,4.62,2.6,10.05,6.29,13.38,10.51,2.56,3.25,2.46,6.22,2.21,10.08-.59,9.18-1.97,11.39-8.82,17.39-4.61.99-4.92,1.56-9.24-.82l-.63-6.51,6.4-5.18-.05-5.81c-3.22-2.99-7.65-8.15-11.91-9.32-2.26-.62-3.57-1.33-5.53-2.58-.98-6.75.2-12.61,1.42-19.21Z"/>
  <path class="cls-21" d="M2093.16,905.13c3.26-5.42,6.49-10.39,12.12-13.67,4.81-2.81,9.53-1.62,14.65-.45,4.16,4.33,6.07,7.48,7.72,13.26-5.16-3.66-14.02-5.86-20.37-4.6-7.84,1.56-11.85,8.12-15.91,14.25l1.8-8.79Z"/>
  <path class="cls-13" d="M1598.05,872.61c.37-13.84-.61-28.83,1.25-42.5,1.37-10.08,4.88-20.37,7.75-30.11,6.09,3.86,11.58,7.18,18.57,9.14l1.57.41,23.13,144.35c-7.16-12.12-11.81-24.97-16.46-38.2-1.54-4.37-3.4-13.6-5.87-17.09-1.86-2.62-8.87-6.56-11.7-8.77-6.62-5.17-12.44-11.16-18.24-17.22Z"/>
  <path class="cls-25" d="M1688.34,981.32c-3.82-.95-6.06-5.38-7.92-8.52-3-5.07-8.02-14.58-6.15-20.54l.54-1.49.53-1.89c3.81-12.17,16.41-19.24,26.93-24.89,10.59,0,18.94-1.41,28.41,3.58,6.2,3.26,13.72,8.57,16.94,15.07,5.5,11.09,2.9,22.6-.94,33.67-.48,6.64-3.46,11.17-8.6,15.39-6.31,5.17-15.41,6.6-23.39,5.65-13.03-1.56-16.97-9.25-26.36-16.02Z"/>
  <path class="cls-10" d="M1688.34,981.32c-.17-5.25-.76-11.31.43-16.45,1.5-6.49,6.51-13.3,12.6-16.16,5.67-2.66,12.03-1.78,17.63.45,7.16,2.85,13.14,8.32,15.93,15.62,2.51,6.56,1.46,12.91-1.44,19.11-.95,2.03-.59,1.94-.07,4.03,5.73-2.18,9.28-7.15,13.26-11.62-.48,6.64-3.46,11.17-8.6,15.39-6.31,5.17-15.41,6.6-23.39,5.65-13.03-1.56-16.97-9.25-26.36-16.02Z"/>
  <path class="cls-24" d="M841.07,1568.87l1.41-.48c6.78-2.39,12.8-5.81,19.03-9.34l2.24,2.3-.88,5.8c12.85,2.29,27.55.95,40.63.95h73.73s379.51-.2,379.51-.2l108.57-.06c17.08-.01,36.02-1.76,52.86.42,6.84.89,14.57,5.81,20.07,9.88,12.05,17.71,17.38,42.57,24.15,62.85l32,93.71,64.81,190.03,9.54,28.03,8.77,24.35,4.75,14.61,17.6,46.4,6.53,18.5,4.8,13.14,9.61,26.36,3.5,11.23c-1.23,17.27-2.7,29.05-16.5,40.94l-7.26,5.79-676.25-.07-5.35-31.35c-4.67-4.89-20.28-3.73-27.42-4.16-10.75-19.41-18.1-42.24-26.21-62.95l-117.15-330.54-9.27-26.04-1.74-3.31c-.73-10.79-5.21-21.8-8.4-32.11-6.98-22.53-14.85-44.33-15.78-68.15l-.42-3.14.47-2.72c.97-2.02,1.85-3.69,3.18-5.49,6.82-9.21,13.56-13.85,24.91-15.17Z"/>
  <path class="cls-25" d="M1201.89,1775.17c13.44-.85,25.16-.61,37.69,4.84,22.85,9.93,40.63,29.47,49.35,52.77,7.13,19.05,9.16,39.21.14,57.99-7.69,15.99-18.78,22.56-35.02,28.13-13.91.87-26.83-.05-39.76-5.74-22.09-9.73-39.05-29-47.62-51.43-7.16-18.74-8.57-39.22.11-57.67,7.53-16.01,18.93-23.21,35.12-28.88Z"/>
  <path class="cls-10" d="M841.07,1568.87l1.41-.48c6.78-2.39,12.8-5.81,19.03-9.34l2.24,2.3-.88,5.8c12.85,2.29,27.55.95,40.63.95h73.73s379.51-.2,379.51-.2l108.57-.06c17.08-.01,36.02-1.76,52.86.42,6.84.89,14.57,5.81,20.07,9.88,12.05,17.71,17.38,42.57,24.15,62.85l32,93.71,64.81,190.03,9.54,28.03,8.77,24.35,4.75,14.61,17.6,46.4,6.53,18.5,4.8,13.14,9.61,26.36,3.5,11.23c-1.23,17.27-2.7,29.05-16.5,40.94l-7.26,5.79-676.25-.07-5.35-31.35c7.38-2.95,24.13-.44,32.61-.41l106.1.13,534.78-.4-45.53-128.3-87.09-251.71-33.18-92.71c-6.49-18.07-11.82-36.73-20.02-54.1l-693.65.23-.42-3.14.47-2.72c.97-2.02,1.85-3.69,3.18-5.49,6.82-9.21,13.56-13.85,24.91-15.17Z"/>
  <path class="cls-23" d="M2075.71,995.66c.43,12.09-1.61,25.83.22,37.54-7.71,31.46,25.9,136.09,42.13,167.23,34.06,5.99,55.35,19.19,77.69,45.21,1.5,1.75.79,1.1,2.61,2.32,27.3,5.11,54.31,13.53,80.89,21.56,35.35,10.68,71.15,22.06,103.2,40.81,32.11,18.79,59.06,44.28,83.41,72.18l10.77,14.57c48.38,67.37,74.05,136.78,97.55,215.56l-1.69,4.56c8.01,6.56,10.33,28.11,13.34,38.22l-.9,3.96c6.59,12.12,8.45,26.26,12.24,39.44,2,6.97,6.28,17.22,5.35,24.42,6.2,9.35,7.06,24.39,9.53,35.4l23.28,125.54c2.22,15.99,1.86,36.75,6.91,51.74,1.76,9.51.95,20.06.9,29.75-.15,25.23-1.66,47.8-9.94,71.98-1.98,5.83-3.98,13.61-7.28,18.81-1.05,1.66-2.1,2.47-3.61,3.67,2.34,6.1,2.27,12.35-.42,18.39-.78,1.78-1.64,2.75-2.93,4.18,3,11.33-7.23,59.67-12.99,69.9l-.51.87c-13.65,2.68-29.24,1.16-43.23,1.21l-82.82.5-366.9.53-38.4-.76c-10.61-1.6-22.12-.76-32.89-.8l-59.68-.17-222.83.11c-18.6,2.38-39.4,1.06-58.16-.04l7.26-5.79c13.8-11.89,15.27-23.67,16.5-40.94l-3.5-11.23-9.61-26.36-4.8-13.14-6.53-18.5-17.6-46.4-4.75-14.61-8.77-24.35-9.54-28.03-64.81-190.03-32-93.71c-6.77-20.28-12.1-45.15-24.15-62.85,5.07-10.85,7.44-24.16,11.67-35.57,9.66-26.09,21.61-51.99,34.54-76.61,28.81-54.85,71.31-113.93,125.76-145.69,37.2-21.7,80.57-34.97,121.53-47.74,10.64-13.09,12.74-27.82,28.14-37.7,5.41-2.78,10.87-4.13,16.72-5.6l1.49-12.55,1.87-17.43.65-1.69c.08-.19,1.93-3.95,1.96-3.97,1.03-.81,10.05-1.6,11.88-1.99,10.65-2.27,20.86-5.36,31.09-9.07,61.68-22.32,105.59-74.23,130.8-133.39,7.21-16.92,10.69-35.51,18.66-52.05l.72-1.44Z"/>
  <path class="cls-25" d="M2091.07,1293.3c6.55,8.65,7.95,23.05,10.25,33.61l11.93,56.13c-21.61,17.42-42.53,33.55-69.4,42.1-27.79-11.27-58.11-35.12-81.94-53.62,7.21-4.4,16.75-6.52,24.58-10,19.13-8.5,38.51-18.82,55.94-30.42,17.57-9.84,33.53-24.63,48.63-37.81Z"/>
  <path class="cls-25" d="M1859.86,1234.83l2.84,30.74,5.5,13c20.75,41.43,47.41,76.01,92.1,92.83-8.34,6.62-18.78,11.39-27.96,16.84-17.31,10.28-40.88,27.73-61.22,29.93-4.01-4.63-7.77-9.33-11.01-14.55-21.6-34.78-38.08-90.04-28.41-131.1,10.64-13.09,12.74-27.82,28.14-37.7Z"/>
  <path class="cls-18" d="M2118.06,1200.43c34.06,5.99,55.35,19.19,77.69,45.21,1.5,1.75.79,1.1,2.61,2.32,5.9,19,2.08,29.88-6.94,46.98l-2.57,4.81c-22,33.02-43.57,59.26-75.6,83.3l-11.93-56.13c-2.3-10.56-3.7-24.96-10.25-33.61,17.63-16.14,31.43-33.67,44.14-53.83-3.52-13.19-11.33-26.61-17.16-39.05Z"/>
  <path class="cls-12" d="M1594.38,1734.7l.76-1.35c6.47-12.22,8.3-27.48,12.18-40.75l49.05-185.17-.09,93.2,5.91,128.89,12.86,139.6c1.43,14.96,6.12,34,4.4,48.74l-20.26,6.89-64.81-190.03Z"/>
  <path class="cls-12" d="M2198.35,1247.95c27.3,5.11,54.31,13.53,80.89,21.56,35.35,10.68,71.15,22.06,103.2,40.81,32.11,18.79,59.06,44.28,83.41,72.18l10.77,14.57c48.38,67.37,74.05,136.78,97.55,215.56l-1.69,4.56c-16.39,9.57-41.67,15.57-60.25,20.87-5.23-4.19-6.57-13.06-8.43-19.3l-13.73-42.35c-19.51-55.48-44.35-113.36-79.25-160.87-25.61-34.88-58.22-67.18-97.99-85.34-38.64-17.64-82.35-23.93-123.99-30.47l2.57-4.81c9.02-17.1,12.84-27.98,6.94-46.98Z"/>
  <path class="cls-12" d="M2046.55,1974.72c6.01-7.12,28.97-10.37,38.57-13.34,12.17-3.76,24.3-8.42,35.87-13.77,18.42-8.52,34.81-19.2,49.46-33.3,93.42-89.94,77.89-277.79,81.02-397.42l54.55,178.98,43.53,150.65c4.1,14.68,11.5,31.8,13.03,46.72l2.63,6.24c2.26,6.77,4.63,13.24,5.12,20.42-19.27,8.67-47.43,9.68-68.64,13.46l-202.66,34.8c-17.01,2.61-35.3,6.43-52.49,6.55Z"/>
  <path class="cls-21" d="M2075.71,995.66c.43,12.09-1.61,25.83.22,37.54-7.71,31.46,25.9,136.09,42.13,167.23,5.83,12.44,13.64,25.86,17.16,39.05-12.71,20.16-26.52,37.68-44.14,53.83-15.1,13.18-31.06,27.97-48.63,37.81-17.43,11.6-36.81,21.91-55.94,30.42-7.83,3.48-17.36,5.59-24.58,10l-1.61-.12c-44.69-16.83-71.35-51.4-92.1-92.83l-5.5-13-2.84-30.74c5.41-2.78,10.87-4.13,16.72-5.6l1.49-12.55,1.87-17.43.65-1.69c.08-.19,1.93-3.95,1.96-3.97,1.03-.81,10.05-1.6,11.88-1.99,10.65-2.27,20.86-5.36,31.09-9.07,61.68-22.32,105.59-74.23,130.8-133.39,7.21-16.92,10.69-35.51,18.66-52.05l.72-1.44Z"/>
  <path class="cls-18" d="M1862.71,1265.57l.72-3.73.41-1.77c1.92-8.5,5.26-11.86,11.38-17.72-1.44,11.28-1.62,26.26-7,36.23l-5.5-13Z"/>
  <path class="cls-25" d="M1859.86,1234.83c5.41-2.78,10.87-4.13,16.72-5.6l-1.37,13.11c-6.12,5.87-9.45,9.23-11.38,17.72l-.41,1.77-.72,3.73-2.84-30.74Z"/>
  <path class="cls-6" d="M2075.71,995.66c.43,12.09-1.61,25.83.22,37.54-7.71,31.46,25.9,136.09,42.13,167.23,5.83,12.44,13.64,25.86,17.16,39.05-12.71,20.16-26.52,37.68-44.14,53.83-15.1,13.18-31.06,27.97-48.63,37.81-1.26-17.32,3.68-36.95,4.56-54.55,2.04-40.71-.71-83.13-6.97-123.39-12.63,10.03-24.46,20.87-37.74,30.09-36.51,25.33-77.63,39.92-122.33,39.81l-1.89-6.38,1.87-17.43.65-1.69c.08-.19,1.93-3.95,1.96-3.97,1.03-.81,10.05-1.6,11.88-1.99,10.65-2.27,20.86-5.36,31.09-9.07,61.68-22.32,105.59-74.23,130.8-133.39,7.21-16.92,10.69-35.51,18.66-52.05l.72-1.44Z"/>
  <path class="cls-21" d="M1746.04,1913.71c34.98-9.13,73.39-.34,106.71,11.36,20.83,7.32,127.98,63.93,135.67,60.67,19.04-6.14,39.1-5.84,58.13-11.02,17.18-.12,35.48-3.94,52.49-6.55,7.76,28.01,15.28,54.84,18.76,83.81l1.95,50.14c-1.02,18.22-2.56,35.9-7.27,53.62l-38.4-.76c-10.61-1.6-22.12-.76-32.89-.8l-59.68-.17-222.83.11c-18.6,2.38-39.4,1.06-58.16-.04l7.26-5.79c13.8-11.89,15.27-23.67,16.5-40.94l-3.5-11.23-9.61-26.36-4.8-13.14-6.53-18.5-17.6-46.4-4.75-14.61-8.77-24.35-9.54-28.03,20.26-6.89c1.93,7.37,2.16,14.66,2.52,22.22,17.89-12.95,42.32-23.05,64.07-26.36Z"/>
  <path class="cls-19" d="M1745.95,1915.59l4.41,8.41c-2.13,4.89-8.36,8.07-12.68,11.26-8.21,6.06-15.88,12.21-23.27,19.26-12.1,11.54-22.38,23.63-32.16,37.21l-4.75-14.61c19.9-23.45,41.17-46.84,68.45-61.53Z"/>
  <path class="cls-19" d="M1736.88,2067.44c22.5-27.27,51.56-71.01,90.4-74.6,7.94-.73,20.72-.95,27.71,2.59l-.42,7.87c-5.53,4.09-14.97.76-22.04,1.56-33.76,3.85-64.33,38.89-79.56,67.09l-3.81,8.73-2.22,2.05c-4.6-4.41-7.14-9.73-10.06-15.29Z"/>
  <path class="cls-6" d="M1895.54,2081.11c14.73,11.13,28.73,16.92,46.71,20.21,9.44,1.72,19.16,2.01,28.74,1.4,25.62-1.63,40.69-15.8,56.91-33.85l-.4,43.05-102.84-.15c-9-8.04-20.05-14.49-30.05-21.26,1.45-.88.55-.43,3.09-1.1l2.2-.56-4.35-7.73Z"/>
  <path class="cls-19" d="M1699.84,2038.13c24.67-34.64,62.41-85.04,107.77-91.15,3.32-.45,6.75-.3,10.07-.09,2.38,3.05,2.84,3.52,3.26,7.32-7.21,5.43-20.98,6.89-29.8,11.41-36.63,18.74-67.44,54.07-84.76,91.01l-6.53-18.5Z"/>
  <path class="cls-29" d="M1797.04,2073.14c16.36-11.07,31.21-27.21,52.33-23.34,3.05.56,5.73,1.64,8.62,2.73l2.14.76c11.56,4.52,24.79,20.13,35.41,27.83l4.35,7.73-2.2.56c-2.54.67-1.64.22-3.09,1.1,10.01,6.77,21.06,13.22,30.05,21.26l-197.08.07-3.29-4.48-3.5-11.23-9.61-26.36c8.84-.1,17.07-.25,25.7-2.33,2.91,5.56,5.46,10.89,10.06,15.29l2.22-2.05,3.81-8.73c12.24,6.57,22.39,8.43,35.99,4.24l8.07-3.06Z"/>
  <path class="cls-22" d="M1736.88,2067.44c2.91,5.56,5.46,10.89,10.06,15.29-9.22,3.62-17.31,9.05-26.15,13.39l-9.61-26.36c8.84-.1,17.07-.25,25.7-2.33Z"/>
  <path class="cls-6" d="M1752.98,2071.95c12.24,6.57,22.39,8.43,35.99,4.24l8.07-3.06,6.45.58c-3.41,3.43-4.05,3.38-4.41,8.41l-.88,1.1c-7.39,7.46-20.59,13.17-31.13,11.74-9.04-1.23-12.94-7.45-17.9-14.29l3.81-8.73Z"/>
  <path class="cls-22" d="M1797.04,2073.14c16.36-11.07,31.21-27.21,52.33-23.34,3.05.56,5.73,1.64,8.62,2.73l2.14.76c11.56,4.52,24.79,20.13,35.41,27.83l4.35,7.73-2.2.56c-2.54.67-1.64.22-3.09,1.1-16.45-8.62-28.33-22.19-47.5-25.04-20.87-3.1-32.28,4.83-48.02,16.67.37-5.04,1-4.99,4.41-8.41l-6.45-.58Z"/>
  <path class="cls-1" d="M2046.55,1974.72c17.18-.12,35.48-3.94,52.49-6.55,7.76,28.01,15.28,54.84,18.76,83.81l1.95,50.14c-1.02,18.22-2.56,35.9-7.27,53.62l-38.4-.76c9.53-8.25,17.19-14.6,20.2-27.34-1.38-7.19-1.92-8.14-6.96-13.47-13.76-6.59-44.02-2.44-59.84-2.25l.4-43.05c-.1-17.76-2.42-34.53-5.16-52l-11.21-30.56-23.1-.56c19.04-6.14,39.1-5.84,58.13-11.02Z"/>
  <path class="cls-25" d="M2046.55,1974.72c17.18-.12,35.48-3.94,52.49-6.55,7.76,28.01,15.28,54.84,18.76,83.81-33.22-7.11-64.34-21-95.07-35.11l-11.21-30.56-23.1-.56c19.04-6.14,39.1-5.84,58.13-11.02Z"/>
  <path class="cls-13" d="M1724.28,2107.35l3.29,4.48,197.08-.07,102.84.15c15.82-.19,46.08-4.35,59.84,2.25,5.03,5.33,5.57,6.28,6.96,13.47-3,12.74-10.67,19.1-20.2,27.34-10.61-1.6-22.12-.76-32.89-.8l-59.68-.17-222.83.11c-18.6,2.38-39.4,1.06-58.16-.04l7.26-5.79c13.8-11.89,15.27-23.67,16.5-40.94Z"/>
  <path class="cls-24" d="M1724.28,2107.35l3.29,4.48c2.36,19.22-1.49,25.92-12.06,41.17,14.29.01,28.97-.66,43.16,1.1-18.6,2.38-39.4,1.06-58.16-.04l7.26-5.79c13.8-11.89,15.27-23.67,16.5-40.94Z"/>
  <path class="cls-17" d="M2512.23,1638.07c18.59-5.3,43.86-11.3,60.25-20.87,8.01,6.56,10.33,28.11,13.34,38.22l-.9,3.96c6.59,12.12,8.45,26.26,12.24,39.44,2,6.97,6.28,17.22,5.35,24.42,6.2,9.35,7.06,24.39,9.53,35.4l23.28,125.54c2.22,15.99,1.86,36.75,6.91,51.74,1.76,9.51.95,20.06.9,29.75-.15,25.23-1.66,47.8-9.94,71.98-1.98,5.83-3.98,13.61-7.28,18.81-1.05,1.66-2.1,2.47-3.61,3.67,2.34,6.1,2.27,12.35-.42,18.39-.78,1.78-1.64,2.75-2.93,4.18,3,11.33-7.23,59.67-12.99,69.9l-.51.87c-13.65,2.68-29.24,1.16-43.23,1.21l-82.82.5-366.9.53c4.71-17.72,6.25-35.4,7.27-53.62l-1.95-50.14c-3.48-28.97-11-55.8-18.76-83.81l202.66-34.8c21.21-3.79,49.37-4.79,68.64-13.46-.49-7.18-2.86-13.65-5.12-20.42l-2.63-6.24c-1.53-14.92-8.93-32.04-13.03-46.72l-43.53-150.65,204.62-56.56,1.59-1.24Z"/>
  <path class="cls-28" d="M2370.34,1919.9c26.16-8.54,57.46-4.6,81.86,7.75,15.19,7.69,26.99,18.37,39.4,29.74-16.73-7.11-32.58-16.56-49.76-22.53-20.16-7.02-39.92-8.36-61-7.27-7.27.38-7.5-.39-10.21-6.84l-.29-.85Z"/>
  <path class="cls-28" d="M2362.59,1893.25c23.26-13.04,43.97-16.47,70.17-9.16,26.28,7.34,41.3,24.95,54.88,47.73-33.39-24.18-59.17-44.52-103.02-37.5l-19.4,5.17-2.63-6.24Z"/>
  <path class="cls-14" d="M2512.23,1638.07c18.59-5.3,43.86-11.3,60.25-20.87,8.01,6.56,10.33,28.11,13.34,38.22l-.9,3.96c6.59,12.12,8.45,26.26,12.24,39.44,2,6.97,6.28,17.22,5.35,24.42,6.2,9.35,7.06,24.39,9.53,35.4l23.28,125.54c2.22,15.99,1.86,36.75,6.91,51.74,1.76,9.51.95,20.06.9,29.75-.15,25.23-1.66,47.8-9.94,71.98-1.98,5.83-3.98,13.61-7.28,18.81-1.05,1.66-2.1,2.47-3.61,3.67,2.34,6.1,2.27,12.35-.42,18.39-.78,1.78-1.64,2.75-2.93,4.18,3,11.33-7.23,59.67-12.99,69.9l-.51.87c-13.65,2.68-29.24,1.16-43.23,1.21l-82.82.5-366.9.53c4.71-17.72,6.25-35.4,7.27-53.62,2.26-3.25,1.65-10,1.9-14.06,6.37-3.74,21.73-1.98,29.46-2.32l64.94-3.88c86.5-6.67,180.47-13.69,262.27-44.53,33.41-12.6,60.81-34,75.52-67.29,25.03-56.74-.88-154.52-13.24-213.63-8.11-38.74-15.97-80.04-29.97-117.1l1.59-1.24Z"/>
  <path class="cls-3" d="M2479.38,2155.2c52.88-20.38,114.47-41.08,142.9-95.05,2.34,6.1,2.27,12.35-.42,18.39-.78,1.78-1.64,2.75-2.93,4.18,3,11.33-7.23,59.67-12.99,69.9l-.51.87c-13.65,2.68-29.24,1.16-43.23,1.21l-82.82.5Z"/>
</svg>